<?xml version="1.0" encoding="UTF-8"?>
<svg id="Layer_2" data-name="Layer 2" xmlns="http://www.w3.org/2000/svg" viewBox="0 0 145.21 155.68">
  <defs>
    <style>
      .cls-1 {
        fill: #fff;
      }
    </style>
  </defs>
  <g id="Layer_1-2" data-name="Layer 1">
    <g>
      <path class="cls-1" d="m75.55,26.07c2.25,2.91,4.37,5.67,6.59,8.54,2.22-2.87,4.35-5.63,6.59-8.54-2.06-.43-2.39-1.79-2.37-3.54.07-6.38.03-12.76.03-19.13,0-.42-.03-.84.02-1.25.13-1.27.84-2.01,2.1-2.11,1.18-.09,2.19.83,2.24,2.13.07,1.88.03,3.76.03,5.65,0,4.08.06,8.16-.03,12.23-.03,1.29.4,1.69,1.59,1.52.26-.04.52-.01.78,0,2.14.14,3.06,1.84,1.82,3.58-.64.9-.48,1.17.44,1.61,12.34,5.92,19.38,18.54,17.9,32.01-1.44,13.14-11.2,23.99-24.36,27.06-18.15,4.23-36.5-9.19-37.96-27.78-1.06-13.53,5.78-25.48,18.01-31.32.94-.45.96-.73.4-1.54-1.26-1.85-.34-3.53,1.9-3.64q2.24-.11,2.24-2.42c0-5.54,0-11.08,0-16.63,0-1.04.33-1.84,1.3-2.29.85-.4,1.63-.22,2.32.38.69.61.77,1.43.77,2.29,0,4.91,0,9.83,0,14.74,0,1.57-.06,3.14.02,4.7.08,1.76-.18,3.26-2.36,3.74Zm6.21,14.46c-1.38-.73-2.05-1.87-2.81-2.91-.53-.72-1-.93-1.95-.68-9.12,2.41-14.96,11.54-13.51,21.23,1.37,9.16,9.46,15.99,18.88,15.92,9.19-.07,17.29-7.12,18.44-16.06,1.26-9.73-4.33-18.46-13.38-21.06-1.06-.3-1.62-.06-2.2.78-.69,1.02-1.39,2.07-2.71,2.78.76.34,1.59.75,1.54,1.34-.15,1.97,1.4,2.28,2.57,3.02.48.3.91.7,1.3,1.12,1.2,1.31,1.31,2.66.33,3.6-.99.95-2.18.76-3.5-.57-1.28-1.29-3.33-1.51-4.71-.51-.78.57-1.15,1.33-1.06,2.3.09.98.76,1.44,1.63,1.67,1.36.36,2.74.65,4.08,1.06,3.18.98,4.66,2.7,4.9,5.57.25,3-1.16,5.53-3.96,6.84-.9.42-1.4.83-1.42,1.91-.02,1.06-.78,1.67-1.84,1.8-.99.12-2.07-.29-2.12-1.18-.11-1.9-1.44-2.4-2.72-3.13-.49-.28-.9-.71-1.28-1.14-1.16-1.31-1.21-2.7-.17-3.6,1-.86,2.14-.65,3.39.62,1.24,1.26,2.98,1.55,4.43.72.95-.54,1.41-1.35,1.33-2.46-.07-1.1-.84-1.51-1.73-1.75-1.41-.39-2.85-.66-4.24-1.09-2.82-.88-4.53-2.74-4.67-5.79-.13-2.9,1.2-5.04,3.71-6.39.95-.51,1.75-.91,1.74-2.2,0-.86.74-1.33,1.69-1.79Zm-6.61-7.73c-.38-.52-.8-.93-1.04-1.44-.75-1.53-1.77-1.48-3.14-.79-9.27,4.64-14.67,12.02-15.65,22.4-1.65,17.42,14.19,31.93,31.36,28.84,11.7-2.11,20.61-11.39,22.19-23.12,1.56-11.57-4.68-22.92-15.38-27.99-2.05-.97-1.98-.91-3.48.84-.9,1.06-.81,1.4.52,1.92,10.37,4.07,16.35,14.59,14.59,25.5-1.7,10.5-10.88,18.94-21.17,19.48-11.59.6-21.4-6.38-24.33-17.3-2.83-10.55,2.16-21.75,11.93-26.71,1.15-.58,2.35-1.06,3.6-1.63Z"/>
      <path class="cls-1" d="m105.98,105.11c6.52-3.23,13.02-6.42,19.48-9.67,3.11-1.57,6.35-2.26,9.83-1.95,7.14.66,11.56,7.14,9.35,13.76-.69,2.05-1.84,3.84-3.73,4.87-8.86,4.85-17.34,10.57-26.86,14.03-10.27,3.73-20.73,7.03-31.61,8.56-2.52.36-5.1.33-7.65.35-7.09.04-14.19.03-21.29,0-1.28,0-1.88.06-1.16,1.65.93,2.07.47,4.16-1.12,5.8-3.79,3.89-7.61,7.75-11.51,11.53-2.32,2.24-5.57,2.16-7.87-.13-10.02-9.99-20.02-20.01-30-30.04-2.46-2.47-2.44-5.77,0-8.24,3.66-3.72,7.36-7.42,11.07-11.09,2.08-2.06,5.01-2.37,7.27-.69.93.7,1.38.61,2.15-.17,3.71-3.77,7.79-7.09,12.44-9.67,10.38-5.75,20.85-5.89,31.4-.51,1.11.57,2.19.82,3.43.82,6.68-.04,13.36.15,20.03-.06,8.06-.25,13.69,2.91,16.37,10.85Zm-20.06,9.17c-3.55,0-7.1,0-10.65,0-1.41,0-2.82.02-4.23-.01-1.28-.03-2.09-.68-2.19-1.98-.1-1.39.69-2.13,2-2.35.51-.08,1.04-.05,1.56-.05,7.05,0,14.09,0,21.14,0,2.09,0,4.18.03,6.26-.01,1.57-.03,2.15-.71,2.02-2.28-.05-.57-.15-1.14-.3-1.69-1.26-4.48-4.94-7.17-9.98-7.2-7.78-.04-15.55-.03-23.33,0-1.14,0-2.11-.25-3.11-.8-6.6-3.65-13.57-5-20.97-3.03-6.68,1.78-12.14,5.67-17.13,10.3q-2.76,2.56-.13,5.19c6.83,6.84,13.65,13.68,20.48,20.51.45.45.78,1.09,1.68.65,1.63-.8,3.42-.85,5.2-.84,6.26.01,12.53-.06,18.79.02,6.83.09,13.52-.61,20.06-2.7,6.7-2.13,13.65-3.46,20.16-6.2,8.72-3.66,16.73-8.72,25.01-13.22,2.05-1.11,2.74-3.11,2.48-5.35-.29-2.52-1.65-4.29-4.11-5-2.92-.84-5.78-.55-8.52.81-7.05,3.49-14.11,6.98-21.17,10.46-.51.25-.94.53-1.23,1.11-1.24,2.58-3.34,3.7-6.19,3.66-4.54-.06-9.08-.02-13.62-.02Zm-50.01,36.93c.45-.03.77-.29,1.07-.59,3.58-3.58,7.15-7.17,10.73-10.74.83-.83.84-1.61,0-2.43-.97-.95-1.92-1.92-2.88-2.88-8.77-8.79-17.55-17.58-26.32-26.37-1.31-1.31-1.74-1.34-2.96-.12-3.48,3.46-6.93,6.95-10.41,10.4-.9.89-.87,1.66.01,2.54,9.82,9.81,19.62,19.64,29.43,29.46.37.37.73.76,1.33.73Z"/>
      <path class="cls-1" d="m30.98,74.15c2.12,2.76,4.11,5.31,6.07,7.88.41.54.7.64,1.16.03,1.83-2.41,3.69-4.81,5.55-7.19.4-.51.38-.69-.31-.9-1.14-.35-1.55-1.26-1.54-2.44.02-6.9,0-13.8.01-20.7,0-1.72.82-2.63,2.22-2.6,1.37.03,2.14.97,2.15,2.71.01,5.7.04,11.4-.02,17.1-.01,1.23.19,1.84,1.58,1.67,1.18-.15,2.32.04,2.93,1.3.59,1.22-.1,2.09-.78,2.97-3.39,4.38-6.77,8.76-10.16,13.14-1.54,1.98-2.85,1.99-4.39,0-3.43-4.41-6.82-8.85-10.26-13.26-.69-.88-1.18-1.79-.68-2.87.53-1.17,1.63-1.44,2.78-1.28,1.51.21,1.79-.46,1.77-1.83-.07-5.59-.03-11.19-.03-16.78,0-1.9.72-2.84,2.12-2.87,1.45-.02,2.25.99,2.26,2.93.01,6.69,0,13.38,0,20.08,0,1.56-.53,2.65-2.43,2.92Z"/>
      <path class="cls-1" d="m120.02,74.21c2.2,2.85,4.33,5.61,6.61,8.57,2.22-2.87,4.36-5.64,6.62-8.56-2.03-.39-2.41-1.67-2.39-3.37.05-6.48.02-12.96.02-19.44,0-.31-.02-.63,0-.94.12-1.43,1-2.33,2.29-2.24,1.37.1,2.06.92,2.08,2.27.03,2.14,0,4.28.01,6.43,0,3.81.03,7.63-.02,11.44-.01,1,.24,1.48,1.29,1.31.2-.03.42,0,.63,0,1.12-.05,2.11.23,2.62,1.32.48,1.03.05,1.91-.6,2.74-2.5,3.21-4.98,6.44-7.47,9.66-1.02,1.32-2.02,2.66-3.06,3.96-1.31,1.63-2.72,1.65-4.01,0-3.56-4.57-7.09-9.17-10.64-13.75-.62-.8-.96-1.64-.51-2.61.48-1.03,1.39-1.31,2.46-1.33,2.06-.04,2.06-.06,2.06-2.08,0-5.33,0-10.66,0-15.99,0-.37,0-.73,0-1.1.05-1.35.7-2.17,2.08-2.27,1.29-.09,2.27.8,2.28,2.23.04,7.11.03,14.21,0,21.32,0,1.42-.92,2.11-2.35,2.43Z"/>
      <path class="cls-1" d="m35.55,141.84c-1.87-.03-3.34-1.53-3.34-3.41,0-1.93,1.59-3.5,3.49-3.45,1.81.05,3.37,1.64,3.37,3.45,0,1.9-1.59,3.45-3.52,3.41Z"/>
    </g>
  </g>
</svg>