<?xml version="1.0" encoding="UTF-8"?>
<svg id="Layer_2" data-name="Layer 2" xmlns="http://www.w3.org/2000/svg" viewBox="0 0 145.02 147.08">
  <defs>
    <style>
      .cls-1 {
        fill: #fff;
      }
    </style>
  </defs>
  <g id="Layer_1-2" data-name="Layer 1">
    <g>
      <path class="cls-1" d="m101.18,53.56c2.84.76,5.46,1.46,8.08,2.17.7.19,1.4.4,2.08.65,5.43,1.93,7.43,4.57,7.71,10.36.25,5.05.22,10.11.01,15.17-.19,4.83-3.78,8.16-8.82,8.18-8.45.04-16.89.01-25.34.01-3.2,0-6.41.02-9.61,0-5.38-.05-8.78-3.46-8.9-8.85-.12-5.4-.27-10.79.21-16.18.36-4.08,2.57-6.68,6.26-8.18,3.2-1.3,6.57-2.02,9.9-2.88.45-.12.9-.26,1.34-.38-.04-.49-.42-.59-.66-.81-4.2-3.8-5.83-8.48-4.77-14.05.13-.67.19-1.15-.4-1.65-.75-.65-.51-1.61-.55-2.47-.06-1.35.53-3.01-.24-3.98-.76-.96-2.48-.85-3.77-1.23-.56-.16-1.12-.32-1.67-.49-1.71-.51-2.5-1.47-2.47-2.97.03-1.4.86-2.4,2.47-2.84,4.77-1.3,9.63-2.33,14.3-3.91,4.5-1.52,8.73-1.35,13.18.12,4.46,1.47,9.06,2.49,13.6,3.72,2.54.69,3.26,2.07,2.33,4.56-.18.48-.15.95-.16,1.43,0,3.94,0,7.88-.01,11.82,0,1.5-.75,2.35-1.98,2.38-1.28.04-2.06-.78-2.07-2.26-.03-3.31-.05-6.61.01-9.92.02-1.18-.21-1.44-1.45-1.18-1.61.33-2.35.96-2.07,2.68.15.9.04,1.84.02,2.77,0,.38.05.92-.17,1.12-1.33,1.22-.6,2.63-.5,4.01.36,4.76-1.25,8.77-4.71,12.04-.35.33-.71.63-1.19,1.06Zm-8.4,32.45c3.64,0,7.28-.06,10.92.03,1.36.04,1.84-.25,1.79-1.72-.12-3.74-.03-7.49-.04-11.23,0-1.18.32-2.14,1.57-2.46,1.39-.36,2.48.6,2.5,2.22.03,3.94.05,7.88-.01,11.81-.02,1.09.25,1.48,1.38,1.34,2.31-.29,4-1.73,4.08-4.02.19-5.58.38-11.17-.17-16.76-.2-2.03-1.21-3.41-3.06-4.26-1.91-.87-3.93-1.37-5.91-2-.88-.28-1.37-.12-1.79.77-1.24,2.58-2.59,5.11-3.9,7.65-1.14,2.21-2.42,2.42-4.18.72-1.05-1.01-2.07-2.76-3.17-2.81-1.25-.05-2.19,1.82-3.27,2.85-1.72,1.63-3,1.44-4.1-.68-1.37-2.63-2.72-5.26-4.07-7.89-.24-.47-.37-.94-1.15-.72-2.19.62-4.4,1.18-6.48,2.14-1.78.82-2.8,2.15-3,4.14-.57,5.68-.42,11.36-.16,17.04.09,2.07,1.69,3.45,3.81,3.79,1.11.18,1.67.02,1.64-1.35-.09-3.89-.04-7.78-.02-11.67,0-1.67,1-2.62,2.4-2.33,1.35.29,1.67,1.31,1.67,2.53,0,3.84.04,7.68-.03,11.52-.02,1.12.34,1.39,1.41,1.37,3.78-.06,7.57-.02,11.35-.02Zm10.3-44.24c0-2.25-.09-2.29-2.18-1.67-5.64,1.68-11.29,1.63-16.88-.19-1.2-.39-1.49-.15-1.59,1.02-.47,5.9,4.12,11.02,10.11,11.22,5.65.19,10.55-4.64,10.53-10.38Zm-25.55-15.88c-.02.1-.05.19-.07.29,4.81,1.29,9.62,2.59,14.44,3.88.52.14,1.05.17,1.58.02,4.85-1.3,9.7-2.59,14.71-3.93-.31-.19-.46-.33-.63-.37-4.72-1.27-9.44-2.54-14.17-3.8-.32-.08-.69-.13-1-.05-4.96,1.3-9.9,2.63-14.85,3.96Zm4.45,5.75c-.45,2.89-.41,3.02,2.07,3.95,5.97,2.24,11.91,2.16,17.87-.16,1.38-.54,1.94-1.22,1.83-2.75-.08-1.09-.45-1.02-1.22-.81-2.52.7-5.05,1.33-7.57,2.04-1.49.42-2.94.42-4.43,0-2.84-.8-5.69-1.52-8.55-2.28Zm6.06,32.01q1.99-1.47.42-3.1c-.47-.49-.92-1.01-1.43-1.46-.57-.5-.93-1.32-2.14-1.57,1.14,2.22,2.14,4.16,3.15,6.13Zm12.43-5.89c-.05-.02-.1-.04-.16-.07-1.47,1.35-2.94,2.69-4.4,4.05-.3.28-.05.54.16.73.42.38.72.92,1.4,1.13,1-1.95,1.99-3.9,2.99-5.85Zm-5.33-1.33c-1.68-.21-3.16-.3-4.7.05,1.94,2.88,2.23,2.91,4.35.51.09-.1.15-.24.35-.56Z"/>
      <path class="cls-1" d="m63.46,21.2c1.44,1.51,2.37,3.15,2.42,5.21.04,1.9-.48,3.6-1.82,4.92-6.08,5.92-10.1,13.11-13.13,20.94-.56,1.45-1.25,2.84-1.87,4.26-3.07,7.06-8.67,10.53-16.11,11.5-4.65.6-9.29.56-13.95.23-.87-.06-1.38.15-1.87.94-1.08,1.73-2.77,2.53-4.8,2.56-2.23.03-4.47.04-6.7,0-3.25-.06-5.59-2.4-5.61-5.66-.03-8.27-.03-16.53,0-24.8.01-3.36,2.33-5.66,5.69-5.71,2.18-.03,4.37,0,6.55,0,1.87-.01,3.47.64,4.56,2.15.63.88,1.12.73,1.9.32,3.23-1.68,5.9-4.07,8.42-6.65,2.81-2.89,5.48-5.93,7.97-9.1,6.77-8.6,15.37-14.16,25.99-16.85,7.8-1.97,15.52-4.25,23.52-5.3,2-.26,3.97-.23,5.83.7,3.42,1.71,4.31,5.55,1.98,8.59-1.17,1.53-2.78,2.37-4.59,2.89-7.73,2.25-15.28,5-22.71,8.11-.52.22-1.04.47-1.67.76ZM18.13,53.38c0,3.21.01,6.42,0,9.63,0,.73.1,1.15,1,1.2,4.56.24,9.1.34,13.65-.28,5.89-.8,10.26-3.6,12.63-9.2.8-1.88,1.64-3.73,2.41-5.62,2.75-6.75,6.24-13.05,11.25-18.42.66-.71,1.37-1.38,2-2.12.94-1.08,1.03-2.31.29-3.5-.72-1.16-1.83-1.51-3.16-1.2-1.06.25-1.98.77-2.87,1.37-1.98,1.35-3.69,3-5.26,4.8-2.75,3.16-5.29,6.46-6.85,10.41-.49,1.23-1.63,1.73-2.7,1.24-1.17-.53-1.44-1.5-1.09-2.67.15-.51.36-1.01.6-1.48,4.11-7.76,9.38-14.33,17.58-18.18,9.33-4.37,18.95-7.92,28.8-10.88.94-.28,1.86-.58,2.56-1.3,1.08-1.12.83-2.27-.63-2.83-1.23-.47-2.49-.31-3.74-.12-9.27,1.4-18.29,3.83-27.21,6.69-5.8,1.86-10.8,4.95-14.99,9.41-3.46,3.68-6.63,7.62-10.01,11.38-3.91,4.36-8.07,8.43-13.58,10.75-.73.31-.68.84-.68,1.42,0,3.16,0,6.32,0,9.48Zm-14.05.25c0,4.03.01,8.07,0,12.1,0,1.34.61,1.96,1.94,1.95,1.99-.02,3.98.01,5.97-.01,1.47-.02,2.05-.56,2.05-2.02.02-7.97.02-15.95,0-23.92,0-1.56-.54-2.05-2.14-2.06-1.89-.02-3.78-.01-5.68,0-1.73.01-2.14.41-2.14,2.15,0,3.94,0,7.88,0,11.81Z"/>
      <path class="cls-1" d="m109.34,101.21c4.11-2.98,8.01-6.16,11.81-9.47,2.75-2.39,5.41-4.88,8.1-7.34,1.39-1.27,2.91-2.27,4.85-2.43,4.21-.36,7.04,2.9,6.16,7.05-.4,1.87-1.42,3.4-2.55,4.86-4.66,6.01-9.99,11.39-15.43,16.68-2.51,2.44-5.1,4.78-7.87,6.93-5.46,4.22-11.83,6.1-18.45,7.43-5.79,1.16-11.67,1.95-17.31,3.8-2.26.74-4.42,1.72-6.43,3.02-.65.42-.95.75-.57,1.6.78,1.7.59,3.42-.32,5.04-1.09,1.95-2.19,3.89-3.35,5.8-1.76,2.91-4.82,3.74-7.79,2.04-7.16-4.1-14.3-8.22-21.42-12.38-2.87-1.68-3.67-4.77-2.08-7.68,1.07-1.96,2.21-3.88,3.34-5.81,1.06-1.82,2.66-2.84,4.74-2.93.89-.04,1.26-.38,1.61-1.11,2.1-4.28,4.42-8.42,7.32-12.22,4.9-6.42,11.27-9.01,19.27-7.91,4.56.63,9.12,1.31,13.75,1.33,4.2.02,8.37-.29,12.38-1.5,5.21-1.57,8.82.68,10.23,5.21Zm-23.02,12.29c-1.46.06-2.92-.06-4.35-.31-1.31-.23-2.04-1.17-1.88-2.33.16-1.16,1.12-1.9,2.45-1.69,4.05.64,8.04.12,11.99-.66,3.29-.64,6.55-1.45,9.29-3.55,1.4-1.07,1.75-2.53,1.06-3.85-.68-1.3-1.92-1.79-3.59-1.37-5.15,1.31-10.37,1.99-15.7,1.82-4.42-.14-8.79-.76-13.16-1.35-6-.81-10.99.79-14.88,5.62-3.1,3.85-5.44,8.14-7.67,12.51-.35.68-.03.93.49,1.23,5.59,3.22,11.17,6.44,16.75,9.7.63.37,1.07.37,1.67-.09,1.9-1.45,4-2.55,6.21-3.45,6.16-2.51,12.73-3.33,19.18-4.63,5.57-1.12,11.1-2.38,15.94-5.59,3.5-2.32,6.54-5.19,9.54-8.09,5.27-5.1,10.4-10.35,14.92-16.15.74-.96,1.5-1.93,1.7-3.18.25-1.54-.61-2.34-2.13-1.99-1.09.25-1.85,1.02-2.62,1.76-6.03,5.79-12.42,11.17-19.12,16.16-3.5,2.61-7,5.26-11.12,6.84-4.81,1.84-9.85,2.48-14.96,2.64Zm-18.32,22.26c.06-.91-.32-1.46-1.02-1.86-6.96-4.03-13.93-8.06-20.89-12.08-1.08-.62-1.97-.4-2.6.66-1.09,1.84-2.14,3.7-3.2,5.54-.57.98-.36,1.78.61,2.34,7.08,4.11,14.18,8.2,21.26,12.31,1.08.63,1.84.25,2.41-.75,1.02-1.77,2.03-3.53,3.04-5.3.17-.29.28-.61.38-.85Z"/>
      <path class="cls-1" d="m109.33,9.19c.18.23.36.45.54.68.76.99.78,1.98-.12,2.87-.84.83-2.04.75-2.97-.24-1.79-1.91-3.57-3.85-5.28-5.83-1.16-1.34-.72-2.85.98-3.45,2.42-.86,4.86-1.65,7.3-2.45,1.47-.48,2.49-.1,2.93,1.02.47,1.17-.07,2.15-1.54,2.82-.15.07-.31.14-.69.3,1.59.65,2.98,1.18,4.33,1.78,18.97,8.33,31,27.56,30.16,48.26-.23,5.63-1.42,11.07-3.52,16.3-.68,1.7-1.67,2.35-2.9,1.9-1.26-.47-1.56-1.65-.87-3.44,9.1-23.65-1.96-49.8-25.2-59.58-.97-.41-1.97-.76-2.96-1.14-.06.07-.13.13-.19.2Z"/>
      <path class="cls-1" d="m53.02,90.36c-3.54-3.96-6.43-8.15-8.64-12.77-.84-1.75-1.56-3.55-2.26-5.36-.54-1.4-.14-2.5.96-2.96,1.17-.49,2.29.05,2.82,1.51,1.99,5.48,4.84,10.47,8.54,14.97.48.59,1,1.14,1.52,1.73.12-.15.22-.21.22-.27-.04-1.82.5-2.7,1.75-2.85,1.21-.14,1.99.66,2.37,2.41.44,2.04.89,4.08,1.32,6.12.48,2.25-.6,3.34-2.88,2.91-2.19-.41-4.38-.82-6.57-1.23-1.8-.34-2.52-1.02-2.42-2.31.1-1.31.89-1.82,2.77-1.79.09,0,.18-.04.49-.1Z"/>
    </g>
  </g>
</svg>