<?xml version="1.0" encoding="UTF-8"?>
<svg id="Layer_2" data-name="Layer 2" xmlns="http://www.w3.org/2000/svg" viewBox="0 0 157 152.13">
  <defs>
    <style>
      .cls-1 {
        fill: #fff;
      }
    </style>
  </defs>
  <g id="Layer_1-2" data-name="Layer 1">
    <g>
      <path class="cls-1" d="m53.05,151.91c-2.45-1.5-2.72-3.13-.85-5.74-14.65-8.04-29.28-16.07-43.88-24.08-.59.77-.99,1.71-1.71,2.14-2.04,1.26-3.99.41-4.77-1.91-.44-1.29-.85-2.59-1.28-3.88-.19-.51-.38-1.02-.57-1.53,0-.31,0-.61,0-.92v-.31C0,114.86,0,114.04,0,113.22c2.48-.89,4.96-1.78,7.45-2.66.9-.32,3.62.49,4.1,1.2.87,1.28.68,2.7-.53,4.11-.1.11-.15.25-.31.52,3.72,2.02,7.43,4.03,11.13,6.05,3.72,2.04,7.36,4.23,11.16,6.12,3.77,1.88,7.07,4.75,11.35,5.61,2.95,3.23,7.36,4.09,10.72,6.72.2-.33.38-.52.45-.75.37-1.35,1.06-2.14,2.64-2.11,1.6.02,2.75.41,3.19,2.08.61,2.33,1.29,4.65,1.81,7.01.26,1.17-.46,2.19-1.47,2.55-2.62.94-5.32,1.67-7.99,2.48-.21-.07-.42-.15-.63-.22Z"/>
      <path class="cls-1" d="m157,96.67c-1.95,1.93-3.47,4.34-6.12,5.49-.19.21-.38.43-.57.64-1.11.77-2.17.33-2.97-.39-1.74-1.57-3.39-3.25-4.98-4.97-.83-.9-1.01-2.04-.4-3.18.62-1.18,1.56-1.81,2.96-1.58.39.07.8.07,1.28.11v-47.1c-1.39.6-2.67.56-3.64-.65-1.28-1.6-1.28-2.89.11-4.39,1.39-1.5,2.85-2.93,4.33-4.34,1.34-1.28,3.22-1.21,4.51.11,1.84,1.88,3.67,3.77,5.5,5.66v1.84c-1.04,1.46-2.4,2.31-4.26,2.13-.08-.07-.16-.15-.24-.22-.01.08-.02.16-.03.24-.02,3.47-.05,6.95-.04,10.42,0,11.96.03,23.91.04,35.87.05.2.1.4.14.6.14-.09.28-.17.41-.26,1.88-.33,3.2.39,3.98,2.12v1.84Z"/>
      <path class="cls-1" d="m0,116.9c.19.51.38,1.02.57,1.53-.19,0-.38,0-.57,0C0,117.93,0,117.42,0,116.9Z"/>
      <path class="cls-1" d="m72.1,135.93c-1.73,1.05-3.32.79-5.27-.87-.2-.11-.41-.21-.61-.32-2.86-1.54-5.72-3.07-8.58-4.61-.03-.63.03-1.38-.92-.61-1.84-1.02-3.68-2.03-5.53-3.05l-.61-.32c-2.86-1.54-5.72-3.07-8.58-4.61-.03-.63.03-1.38-.92-.61-1.15-.55-2.3-1.09-3.45-1.64-.02-.09-.04-.19-.06-.31,0,.12-.01.21-.02.3-.15-.07-.3-.14-.44-.22-.21-.11-.42-.21-.64-.32l-.6-.59c-.03-.63.03-1.38-.92-.61-2.86-1.54-5.72-3.07-8.58-4.61-.03-.62.03-1.38-.92-.61-1.15-.55-2.3-1.09-3.45-1.64-.02-.09-.04-.19-.06-.31,0,.12-.01.21-.02.3-.15-.07-.3-.14-.44-.22-.21-.11-.42-.21-.64-.32-.2-.2-.4-.39-.6-.59-.03-.63.03-1.38-.92-.61-2.86-1.54-5.72-3.07-8.58-4.61-.03-.62.03-1.38-.92-.61-1.37-.57-2.12-1.51-2.11-3.08.03-5.81.01-11.63.01-17.44,0-2.16,1.06-3.49,2.85-3.42,1.71.07,3.24,1.15,3.27,3.53.05,4.64.08,9.28-.03,13.92-.03,1.42.44,2.17,1.66,2.76,1.44.71,2.79,1.61,4.18,2.42.2.1.41.2.61.31,2.33,1.24,4.67,2.45,6.98,3.72,2.7,1.49,5.36,3.04,8.04,4.56.2.1.41.2.61.31,1.22.54,2.44,1.08,3.67,1.63.31.18.62.37.93.55.31.3.62.59.92.89l.61.31c2.96,1.64,5.93,3.27,8.89,4.91.2.1.41.2.61.31l5.52,3.07.61.31c2.7,1.44,5.4,2.88,8.09,4.32.34.18.68.38,1.21.68.09-.6.23-1.07.23-1.53.01-18.54.02-37.09-.03-55.63,0-.51-.4-1.25-.83-1.49-4.97-2.78-9.98-5.49-14.98-8.22-.11-.07-.22-.14-.33-.22-.02.17-.03.34-.05.51,0,4.9,0,9.79,0,14.69,0,.22,0,.43,0,.65-.84,2.34-2.52,2.85-4.67,2.08-1.96-.7-3.51-1.9-5.18-2.99-.77-.5-1.66-.84-2.49-1.25-.31-.18-.61-.37-.92-.55-2.21-1.16-4.5-2.21-6.6-3.56-.62-.4-.96-1.65-.97-2.51-.08-5.77-.07-11.53-.02-17.3,0-.99-.28-1.46-1.17-1.93-4.86-2.58-9.68-5.25-14.51-7.89-.14-.09-.28-.18-.42-.27l-.15.31c-.01,5.52-.02,11.03-.04,16.55-.01,2.53-1.51,4.16-3.62,3.98-1.32-.11-2.5-1.34-2.5-2.68-.01-7.92-.03-15.84,0-23.76,0-2.1,1.78-2.65,3.3-3.35.79.68.91.17.94-.52,1.73-.95,3.46-1.9,5.2-2.85.79.68.91.17.94-.52.81-.44,1.62-.88,2.43-1.32l.61-.32c1.84-1.02,3.68-2.03,5.52-3.05.79.68.92.18.94-.52,1.73-.95,3.46-1.9,5.2-2.85.79.68.91.17.94-.52,2.86-1.56,5.71-3.13,8.57-4.69.2-.11.41-.22.61-.32,1.84-1.02,3.68-2.03,5.52-3.05.79.68.91.17.94-.52,1.73-.95,3.46-1.9,5.2-2.85.79.68.91.17.94-.52.81-.44,1.62-.88,2.43-1.32.2-.11.41-.22.61-.32,1.84-1.02,3.68-2.03,5.52-3.05.2-.11.41-.22.61-.32,1.05-.6,2.13-1.16,3.14-1.82,1.4-.93,2.81-.75,4.22-.13.65.29,1.25.7,1.87,1.06.2.1.41.2.61.31,2.21,1.16,4.43,2.28,6.61,3.49,2.82,1.56,5.61,3.19,8.41,4.79.2.1.41.2.61.31,1.84,1.02,3.68,2.04,5.52,3.07.2.1.41.2.61.31,2.34,1.24,4.69,2.45,7.01,3.72,2.69,1.49,5.35,3.03,8.02,4.55.2.1.41.2.61.31,1.84,1.02,3.68,2.04,5.52,3.07.2.1.41.2.61.31,2.96,1.64,5.93,3.27,8.89,4.91.2.1.41.2.61.31,1.73.86,3.68,1.41,4.79,3.2.13.38.26.75.39,1.12.03,4.69.07,9.39.08,14.08.01,5.67.01,11.33,0,17,0,2.38-1.16,3.61-3.28,3.57-1.71-.03-2.8-1.05-2.81-2.8-.03-8.22-.03-16.44-.04-24.65,0-.54,0-1.08,0-1.83-2.82,1.46-5.41,2.82-8.01,4.17-.2.1-.41.21-.61.31-1.2.72-2.39,1.49-3.62,2.16-3.79,2.06-7.6,4.08-11.41,6.12-.2.1-.41.21-.61.31-1.86.91-3.74,1.8-5.57,2.77-.49.26-.79.87-1.27,1.18-.95.6-1.95,1.13-2.94,1.65-1.74.91-3.49,1.79-5.24,2.68-.2.1-.41.21-.61.31-1.3.79-2.57,1.62-3.89,2.36-2.66,1.48-5.34,2.94-8.05,4.34-1.07.56-1.56,1.2-1.56,2.53.06,17.93.04,35.86.04,53.78,0,.81,0,1.63,0,2.79,2.64-1.37,5.12-2.65,7.6-3.94.2-.11.41-.22.61-.32,1.84-1.02,3.68-2.03,5.52-3.05.79.68.91.17.94-.52,1.73-.95,3.46-1.9,5.2-2.85.79.68.91.17.94-.52.81-.44,1.62-.88,2.43-1.32l.61-.32c1.84-1.02,3.68-2.03,5.52-3.05.95.77.9.02.92-.61,1.74-.92,3.47-1.84,5.21-2.76.79.68.91.17.94-.52.81-.44,1.62-.88,2.43-1.32.2-.11.41-.22.61-.32,1.84-1.02,3.68-2.03,5.52-3.05.79.68.92.18.94-.52.19-.12.39-.25.58-.37.23-.28.46-.56.69-.83.12,0,.23,0,.35,0,.02.09.04.19.06.28.02-.09.04-.19.06-.28,1.15-.55,2.31-1.09,3.46-1.64.79.68.91.17.94-.52.19-.13.37-.26.56-.39,1.19-.24,1.22-.91.68-1.8.01-2.29,0-4.58.05-6.87,0-.47.2-.94.3-1.41,1,.06.85-.65.84-1.26,2.42-1.49,4.9-.05,4.96,2.93.06,3.22.03,6.44.04,9.65-.05.11-.1.22-.14.33-.1.45-.21.91-.31,1.36-.02.06-.06.09-.12.12-.24.23-.49.47-.73.7-4.09,2.25-8.17,4.5-12.26,6.75-.15-.06-.31-.12-.46-.17.06.15.12.31.17.46-3.68,2.03-7.36,4.08-11.05,6.1-1.41.77-2.87,1.47-4.3,2.2-.15-.06-.31-.12-.46-.17.06.15.12.31.17.46-3.68,2.03-7.36,4.08-11.05,6.1-1.41.77-2.87,1.47-4.3,2.2-.15-.06-.31-.12-.46-.17.06.15.12.31.17.46-3.68,2.03-7.36,4.08-11.05,6.1-1.41.77-2.87,1.47-4.3,2.2-.15-.06-.31-.12-.46-.17.06.15.12.31.17.46ZM36.83,53.4c-.14-.09-.29-.18-.43-.26-.04.11-.09.21-.13.32-.01,4.08,0,8.17-.06,12.25-.02,1.03.38,1.44,1.29,1.87,1.95.92,3.8,2.07,5.69,3.13.41.23.81.47,1.22.71.13-.51.37-1.02.37-1.53.03-3.52-.05-7.05.05-10.56.04-1.2-.43-1.74-1.4-2.25-2.23-1.16-4.4-2.44-6.59-3.67Zm62.81-30.9c-1.33-.72-2.66-1.44-3.98-2.15-.03-.62.03-1.38-.92-.61-1.01-.31-2.03-.62-3.04-.92-.2.1-.41.2-.61.31-1.84,1.02-3.68,2.04-5.52,3.07-.2.1-.41.2-.61.31-1.84,1.02-3.68,2.04-5.52,3.07-.2.1-.41.2-.61.31-1.84,1.02-3.68,2.04-5.52,3.07-.2.1-.41.2-.61.31-.27.2-.51.44-.8.6-3.99,2.24-7.97,4.5-11.98,6.69-2.76,1.51-5.58,2.91-8.38,4.36l-.61.31c-1.84,1.02-3.68,2.04-5.52,3.07l-.61.31c-1.74,1.05-3.48,2.1-5.33,3.21,2.7,1.52,5.29,3.01,7.93,4.41.34.18.99,0,1.4-.2,1.44-.72,2.84-1.52,4.25-2.29.95.78.89.02.92-.6,1.74-.92,3.47-1.84,5.21-2.77.79.68.91.17.94-.52,1.73-.95,3.46-1.9,5.2-2.85.79.68.91.17.94-.52,1.73-.95,3.46-1.9,5.2-2.85.79.68.91.17.94-.52,2.86-1.57,5.71-3.13,8.57-4.7.2-.11.41-.21.61-.32,1.84-1.02,3.68-2.03,5.52-3.05.2-.11.41-.21.61-.32,1.84-1.02,3.68-2.03,5.53-3.05.2-.11.41-.21.61-.32,1.84-1.02,3.68-2.03,5.53-3.05.79.68.91.17.94-.52.1-.23.2-.47.31-.7-.03-.66-.1-1.27-.94-.54Zm-30.66,2.06c.79.68.91.17.94-.52,2.86-1.57,5.71-3.13,8.57-4.7.2-.11.41-.21.61-.32,1.84-1.02,3.68-2.03,5.53-3.05.2-.11.41-.21.61-.32.23-.19.46-.38.68-.56-.8-.53-1.51-1-2.21-1.47-.2-.11-.41-.21-.61-.32-.82-.41-1.63-.83-2.45-1.24-.03-.62.03-1.38-.92-.61-1.84-1.02-3.68-2.03-5.53-3.05l-.61-.32c-.66-.31-1.4-.51-1.96-.95-1.09-.85-2.05-.55-3.09.03-1.15.64-2.33,1.22-3.5,1.83-.2.1-.41.2-.61.31-1.84,1.02-3.68,2.04-5.52,3.07-.2.1-.41.2-.61.31-2.96,1.64-5.93,3.27-8.89,4.91-.2.1-.41.2-.61.31-1.84,1.02-3.68,2.04-5.52,3.07-.2.1-.41.2-.61.31-2.96,1.64-5.93,3.27-8.89,4.91-.2.1-.41.2-.61.31-1.84,1.02-3.68,2.04-5.52,3.07-.2.1-.41.2-.61.31-2.96,1.64-5.93,3.27-8.89,4.91-.2.1-.41.2-.61.31.07.29.05.71.24.84.81.56,1.67,1.04,2.52,1.54.2.1.41.2.61.31,3.41,1.85,6.84,3.67,10.24,5.55,1.06.59,2.06.98,3.23.32,1.32-.75,2.66-1.47,3.98-2.2.2-.11.41-.21.61-.32,1.84-1.02,3.68-2.03,5.53-3.05.2-.11.41-.21.61-.32,1.84-1.02,3.68-2.03,5.53-3.05.95.78.89.02.92-.6,1.74-.92,3.47-1.84,5.21-2.77.79.68.91.17.94-.52,1.73-.95,3.46-1.9,5.2-2.85.79.68.91.17.94-.52,1.73-.95,3.46-1.9,5.2-2.85Zm37.44,2.53c-.2.1-.41.2-.61.31-1.84,1.02-3.68,2.04-5.52,3.07-.2.1-.41.2-.61.31-1.84,1.02-3.68,2.04-5.52,3.07-.2.1-.41.2-.61.31-1.84,1.02-3.68,2.04-5.52,3.07-.2.1-.41.2-.61.31-.21.19-.41.42-.65.58-1.99,1.35-4.32,2.05-6.37,3.37-3.46,2.23-7.19,4.04-10.82,6.01-3.14,1.7-6.3,3.38-9.46,5.07-.2.1-.41.2-.61.31-1.71,1.03-3.41,2.07-5.17,3.13,5.08,2.83,10.08,5.61,15.07,8.42.82.46,1.44.31,2.15-.21.83-.6,1.75-1.08,2.63-1.61.2-.11.41-.21.61-.32,1.84-1.02,3.68-2.03,5.53-3.05.79.69.91.17.94-.52,1.73-.95,3.46-1.9,5.2-2.85.79.68.91.17.94-.52,2.86-1.57,5.71-3.13,8.57-4.7.2-.11.41-.21.61-.32,1.84-1.02,3.68-2.03,5.53-3.05.79.69.91.17.94-.52,1.73-.95,3.46-1.9,5.2-2.85.79.68.91.17.94-.52l8.57-4.7c.2-.11.41-.21.61-.32,1.62-.94,3.24-1.89,4.81-2.8-.69-.46-1.37-.92-2.05-1.37-.2-.11-.4-.21-.61-.32-.82-.41-1.63-.83-2.45-1.24-.03-.62.03-1.38-.92-.61-1.74-.92-3.47-1.84-5.21-2.77-.03-.62.03-1.39-.92-.6-.87-.43-1.7-.92-2.6-1.25-.61-.22-1.31-.2-1.97-.29Z"/>
      <path class="cls-1" d="m88.3,146.36c2.09,2.26.93,5.41-1.46,5.57-.93.06-1.91-.16-2.83-.41-1.46-.39-2.9-.9-4.34-1.39-1.95-.67-2.87-2.27-2.35-4.23.55-2.04,1.14-4.07,1.82-6.07.67-1.99,4-2.64,5.18-.91,1,1.47,2.06,1.19,3.2.58,3.77-2.03,7.49-4.15,11.23-6.21,3.62-1.99,7.37-3.79,10.85-6,2.89-1.83,6.07-3.04,8.97-4.83,3.01-1.86,6.17-3.48,9.32-5.08,1.29-.65.81-1.67.58-2.39-.51-1.6-.21-3.07,1.08-3.78.95-.52,2.42-.39,3.58-.15,1.68.34,3.3,1.01,4.94,1.56,1.93.64,2.85,2.06,2.31,3.96-.58,2.03-1.38,4-2.09,6-.54,1.53-1.52,2.47-3.24,2.3-1.63-.16-2.37-1.27-2.77-2.96-14.71,8.09-29.35,16.14-43.98,24.19-.08.01-.15.03-.23.04.07.07.15.15.22.22Z"/>
      <path class="cls-1" d="m10.68,67.84c1.82,0,3.2,1.25,3.14,2.83-.06,1.57-1.66,3.01-3.32,2.99-1.47-.02-2.81-1.44-2.83-3.01-.02-1.89.97-2.81,3.01-2.81Z"/>
      <path class="cls-1" d="m129.7,81.33c-1.82,0-3.08-1.22-3.05-2.94.02-1.62,1.31-2.86,2.99-2.88,1.66-.03,3.16,1.42,3.16,3.04,0,1.56-1.36,2.79-3.09,2.78Z"/>
      <path class="cls-1" d="m126.66,97.59c.54.89.51,1.57-.68,1.8-.69-.95.18-1.3.68-1.8Z"/>
      <path class="cls-1" d="m132.41,102.32c.1-.45.21-.91.31-1.36.09.21.18.42.27.63-.19.24-.39.48-.58.73Z"/>
      <path class="cls-1" d="m127.86,88.05c0,.61.16,1.32-.84,1.26.28-.42.56-.84.84-1.26Z"/>
      <path class="cls-1" d="m56.71,129.52c.95-.78.89-.02.92.61-.31-.2-.62-.4-.92-.61Z"/>
      <path class="cls-1" d="m41.07,120.93c.95-.78.89-.02.92.61-.31-.2-.62-.4-.92-.61Z"/>
      <path class="cls-1" d="m34.94,117.56c.95-.78.89-.02.92.61-.31-.2-.62-.4-.92-.61Z"/>
      <path class="cls-1" d="m25.44,112.35c.95-.77.89-.02.92.61-.31-.2-.62-.41-.92-.61Z"/>
      <path class="cls-1" d="m19.3,108.98c.95-.78.89-.02.92.61-.31-.2-.62-.4-.92-.61Z"/>
      <path class="cls-1" d="m27.6,22.82c-.02.7-.15,1.2-.94.52.31-.17.63-.35.94-.52Z"/>
      <path class="cls-1" d="m120.55,101.95c-.23.28-.46.56-.69.83.23-.28.46-.56.69-.83Z"/>
      <path class="cls-1" d="m125.42,99.78c-.02.69-.15,1.2-.94.52.31-.17.62-.35.94-.52Z"/>
      <path class="cls-1" d="m33.73,19.44c-.02.69-.15,1.2-.94.52.31-.17.62-.35.94-.52Z"/>
      <path class="cls-1" d="m9.8,103.76c.95-.77.89-.02.92.61-.31-.2-.62-.4-.92-.61Z"/>
      <path class="cls-1" d="m109.78,108.37c-.02.69-.15,1.2-.94.52.31-.17.62-.35.94-.52Z"/>
      <path class="cls-1" d="m18.09,28.03c-.02.69-.15,1.2-.94.52.31-.17.62-.35.94-.52Z"/>
      <path class="cls-1" d="m103.63,111.66c-.03.63.02,1.38-.92.61.31-.2.62-.4.92-.61Z"/>
      <path class="cls-1" d="m88.01,120.33c-.02.69-.15,1.2-.94.52l.94-.52Z"/>
      <path class="cls-1" d="m11.96,31.4c-.02.69-.15,1.2-.94.52.31-.17.63-.35.94-.52Z"/>
      <path class="cls-1" d="m49.37,10.86c-.02.69-.15,1.2-.94.52l.94-.52Z"/>
      <path class="cls-1" d="m94.14,116.96c-.02.69-.15,1.2-.94.52.31-.17.62-.35.94-.52Z"/>
      <path class="cls-1" d="m119.28,103.16c-.02.7-.15,1.2-.94.52.31-.17.63-.35.94-.52Z"/>
      <path class="cls-1" d="m37.72,74.34c.31.18.61.37.92.55-.31-.18-.61-.37-.92-.55Z"/>
      <path class="cls-1" d="m40.49,113.53c-.31-.18-.62-.37-.93-.55.31.18.62.37.93.55Z"/>
      <path class="cls-1" d="m132.99,101.59c-.09-.21-.18-.42-.27-.63.05-.11.1-.22.14-.33.04.32.09.64.13.96Z"/>
      <path class="cls-1" d="m132.75,35.34c-.13-.37-.26-.75-.39-1.12.13.37.26.75.39,1.12Z"/>
      <path class="cls-1" d="m150.31,102.8c.19-.21.38-.43.57-.64-.19.21-.38.43-.57.64Z"/>
      <path class="cls-1" d="m131.56,103.13c.24-.23.49-.47.73-.7-.24.23-.49.47-.73.7Z"/>
      <path class="cls-1" d="m118.07,45.19c.2-.1.41-.21.61-.31-.2.1-.41.21-.61.31Z"/>
      <path class="cls-1" d="m53.05,151.91c.21.07.42.15.63.22-.21-.07-.42-.15-.63-.22Z"/>
      <path class="cls-1" d="m72.1,135.93c-.06-.15-.12-.31-.17-.46.15.06.31.12.46.17-.1.1-.19.19-.29.29Z"/>
      <path class="cls-1" d="m102.43,53.77c.2-.1.41-.21.61-.31-.2.1-.41.21-.61.31Z"/>
      <path class="cls-1" d="m66.22,134.73c.2.11.41.21.61.32-.2-.11-.41-.21-.61-.32Z"/>
      <path class="cls-1" d="m86.79,62.36c.2-.1.41-.21.61-.31-.2.1-.41.21-.61.31Z"/>
      <path class="cls-1" d="m127.58,31.01c-.2-.1-.41-.2-.61-.31.2.1.41.2.61.31Z"/>
      <path class="cls-1" d="m50.98,77.06c0-.22,0-.43,0-.65.15.13.3.26.44.39l-.44.25Z"/>
      <path class="cls-1" d="m21.14,26.38l-.61.32.61-.32Z"/>
      <path class="cls-1" d="m118.07,25.8c-.2-.1-.41-.2-.61-.31.2.1.41.2.61.31Z"/>
      <path class="cls-1" d="m111.94,22.42c-.2-.1-.41-.2-.61-.31.2.1.41.2.61.31Z"/>
      <path class="cls-1" d="m20.25,102.76c-.2-.1-.41-.2-.61-.31.2.1.41.2.61.31Z"/>
      <path class="cls-1" d="m112.82,106.72c-.2.11-.41.22-.61.32.2-.11.41-.22.61-.32Z"/>
      <path class="cls-1" d="m119.01,110.17c-.06-.15-.12-.31-.17-.46.15.06.31.12.46.17-.1.1-.19.19-.29.29Z"/>
      <path class="cls-1" d="m87.73,127.34c-.06-.15-.12-.31-.17-.46.15.06.31.12.46.17-.1.1-.19.19-.29.29Z"/>
      <path class="cls-1" d="m50.58,126.15c.2.11.41.21.61.32-.2-.11-.41-.21-.61-.32Z"/>
      <path class="cls-1" d="m35.89,111.35c-.2-.1-.41-.2-.61-.31.2.1.41.2.61.31Z"/>
      <path class="cls-1" d="m42.91,14.43c-.2.11-.41.22-.61.32.2-.11.41-.22.61-.32Z"/>
      <path class="cls-1" d="m96.3,13.84c-.2-.1-.41-.2-.61-.31.2.1.41.2.61.31Z"/>
      <path class="cls-1" d="m42.02,114.72l-.61-.31.61.31Z"/>
      <path class="cls-1" d="m97.18,115.31l-.61.32.61-.32Z"/>
      <path class="cls-1" d="m81.54,123.9c-.2.11-.41.22-.61.32.2-.11.41-.22.61-.32Z"/>
      <path class="cls-1" d="m103.37,118.76c-.06-.15-.12-.31-.17-.46.15.06.31.12.46.17-.1.1-.19.19-.29.29Z"/>
      <path class="cls-1" d="m57.66,123.31l-.61-.31.61.31Z"/>
      <path class="cls-1" d="m51.53,119.94c-.2-.1-.41-.2-.61-.31.2.1.41.2.61.31Z"/>
      <path class="cls-1" d="m36.47,118.75c.21.11.42.21.64.32-.21-.11-.42-.21-.64-.32Z"/>
      <path class="cls-1" d="m20.83,110.17c.21.11.42.21.64.32-.21-.11-.42-.21-.64-.32Z"/>
      <path class="cls-1" d="m50.98,61.72c.02-.17.03-.34.05-.51.11.07.22.14.33.22l-.38.29Z"/>
      <path class="cls-1" d="m13.87,41.18l.15-.31c.14.09.28.18.42.27-.19.01-.38.03-.58.04Z"/>
      <path class="cls-1" d="m37.55,119.29c0-.09.01-.18.02-.3.02.12.04.21.06.31,0,0-.08,0-.08,0Z"/>
      <path class="cls-1" d="m21.91,110.7c0-.09.01-.18.02-.3.02.12.04.21.06.31,0,0-.08,0-.08,0Z"/>
      <path class="cls-1" d="m121.02,101.94c-.02.09-.04.19-.06.28-.02-.09-.04-.19-.06-.28,0,0,.12,0,.12,0Z"/>
      <path class="cls-1" d="m88.3,146.36c-.07-.07-.15-.15-.22-.22.08-.01.15-.03.23-.04,0,.09,0,.17,0,.26Z"/>
      <path class="cls-1" d="m152.46,92.37l.56.34c-.14.09-.28.17-.41.26-.05-.2-.1-.4-.14-.6Z"/>
      <path class="cls-1" d="m152.74,46.06c-.09.02-.18.02-.28.02.01-.08.02-.16.03-.24.08.07.16.15.24.22Z"/>
      <path class="cls-1" d="m65.3,42.96c.31-.17.62-.35.94-.52-.02.69-.15,1.2-.94.52Z"/>
      <path class="cls-1" d="m53.03,49.71c.31-.2.62-.4.92-.6-.03.63.03,1.38-.92.6Z"/>
      <path class="cls-1" d="m108.23,43.88c.31-.17.62-.35.94-.52-.02.69-.15,1.2-.94.52Z"/>
      <path class="cls-1" d="m100.58,23.04c-.31-.18-.62-.36-.94-.54.84-.73.9-.13.94.54Z"/>
      <path class="cls-1" d="m99.34,24.26c.31-.17.62-.35.94-.52-.02.69-.15,1.2-.94.52Z"/>
      <path class="cls-1" d="m68.98,24.57c.31-.17.62-.35.94-.52-.02.69-.15,1.2-.94.52Z"/>
      <path class="cls-1" d="m95.66,20.35c-.31-.2-.61-.41-.92-.61.95-.77.89-.01.92.61Z"/>
      <path class="cls-1" d="m71.43,39.59c.31-.17.62-.35.94-.52-.02.69-.15,1.2-.94.52Z"/>
      <path class="cls-1" d="m62.85,27.94c.31-.17.62-.35.94-.52-.02.69-.15,1.2-.94.52Z"/>
      <path class="cls-1" d="m111.91,29.24c-.31-.2-.62-.4-.92-.6.95-.78.89-.02.92.6Z"/>
      <path class="cls-1" d="m59.17,46.33l.94-.52c-.02.69-.15,1.2-.94.52Z"/>
      <path class="cls-1" d="m56.71,31.31c.31-.17.62-.35.94-.52-.02.69-.15,1.2-.94.52Z"/>
      <path class="cls-1" d="m80.63,12.07c-.31-.2-.61-.4-.92-.61.95-.78.89-.02.92.61Z"/>
      <path class="cls-1" d="m118.04,32.61c-.31-.2-.61-.4-.92-.61.95-.78.89-.02.92.61Z"/>
      <path class="cls-1" d="m80.32,59.21c.31-.17.62-.35.94-.52-.02.69-.15,1.2-.94.52Z"/>
      <path class="cls-1" d="m50.58,34.68c.31-.2.62-.4.92-.6-.03.63.03,1.38-.92.6Z"/>
      <path class="cls-1" d="m86.46,55.84l.94-.52c-.02.69-.15,1.2-.94.52Z"/>
      <path class="cls-1" d="m102.09,47.25c.31-.17.62-.35.94-.52-.02.69-.15,1.2-.94.52Z"/>
      <path class="cls-1" d="m45.4,44.27l-.61.31.61-.31Z"/>
      <path class="cls-1" d="m51.53,40.89l-.61.31.61-.31Z"/>
      <path class="cls-1" d="m117.73,38.67c.2-.11.41-.21.61-.32-.2.11-.41.21-.61.32Z"/>
      <path class="cls-1" d="m44.45,38.05c.2-.11.41-.21.61-.32-.2.11-.41.21-.61.32Z"/>
      <path class="cls-1" d="m20.25,37.45c.2.1.41.2.61.31-.2-.1-.41-.2-.61-.31Z"/>
      <path class="cls-1" d="m88.02,37.21c-.2.1-.41.2-.61.31.2-.1.41-.2.61-.31Z"/>
      <path class="cls-1" d="m95.96,50.63c.2-.11.41-.21.61-.32-.2.11-.41.21-.61.32Z"/>
      <path class="cls-1" d="m60.11,52.54c-.2.1-.41.2-.61.31.2-.1.41-.2.61-.31Z"/>
      <path class="cls-1" d="m18.1,34.76c-.2.1-.41.2-.61.31.2-.1.41-.2.61-.31Z"/>
      <path class="cls-1" d="m80.94,34.37c.2-.11.41-.21.61-.32-.2.11-.41.21-.61.32Z"/>
      <path class="cls-1" d="m121.1,34.17c-.2-.11-.4-.21-.61-.32.2.11.4.21.61.32Z"/>
      <path class="cls-1" d="m74.19,62.58l.61-.32-.61.32Z"/>
      <path class="cls-1" d="m94.15,33.84c-.2.1-.41.2-.61.31.2-.1.41-.2.61-.31Z"/>
      <path class="cls-1" d="m87.07,31c.2-.11.41-.21.61-.32-.2.11-.41.21-.61.32Z"/>
      <path class="cls-1" d="m100.28,30.47c-.2.1-.41.2-.61.31.2-.1.41-.2.61-.31Z"/>
      <path class="cls-1" d="m27.61,29.55c-.2.1-.41.2-.61.31.2-.1.41-.2.61-.31Z"/>
      <path class="cls-1" d="m73.3,28.93c-.2.1-.41.2-.61.31.2-.1.41-.2.61-.31Z"/>
      <path class="cls-1" d="m93.2,27.63l.61-.32-.61.32Z"/>
      <path class="cls-1" d="m106.42,27.09c-.2.1-.41.2-.61.31.2-.1.41-.2.61-.31Z"/>
      <path class="cls-1" d="m33.74,26.17c-.2.1-.41.2-.61.31.2-.1.41-.2.61-.31Z"/>
      <path class="cls-1" d="m79.43,25.56c-.2.1-.41.2-.61.31.2-.1.41-.2.61-.31Z"/>
      <path class="cls-1" d="m85.57,22.19c-.2.1-.41.2-.61.31.2-.1.41-.2.61-.31Z"/>
      <path class="cls-1" d="m43.25,20.96c-.2.1-.41.2-.61.31.2-.1.41-.2.61-.31Z"/>
      <path class="cls-1" d="m78.48,19.35c.2-.11.41-.21.61-.32-.2.11-.41.21-.61.32Z"/>
      <path class="cls-1" d="m91.7,18.81c-.2.1-.41.2-.61.31.2-.1.41-.2.61-.31Z"/>
      <path class="cls-1" d="m49.38,17.59c-.2.1-.41.2-.61.31.2-.1.41-.2.61-.31Z"/>
      <path class="cls-1" d="m84.62,15.98c.2-.11.41-.21.61-.32-.2.11-.41.21-.61.32Z"/>
      <path class="cls-1" d="m83.69,13.63c-.2-.11-.41-.21-.61-.32.2.11.41.21.61.32Z"/>
      <path class="cls-1" d="m58.89,12.37c-.2.1-.41.2-.61.31.2-.1.41-.2.61-.31Z"/>
      <path class="cls-1" d="m38.31,41.43c.2-.11.41-.21.61-.32-.2.11-.41.21-.61.32Z"/>
      <path class="cls-1" d="m36.83,53.4c-.19.02-.38.04-.57.05.04-.11.09-.21.13-.32.14.09.29.18.43.26Z"/>
    </g>
  </g>
</svg>