<?xml version="1.0" encoding="UTF-8"?>
<svg id="Layer_2" data-name="Layer 2" xmlns="http://www.w3.org/2000/svg" xmlns:xlink="http://www.w3.org/1999/xlink" viewBox="0 0 927.38 861.07">
  <defs>
    <style>
      .cls-1 {
        clip-rule: evenodd;
      }

      .cls-1, .cls-2 {
        fill: #061774;
      }

      .cls-2 {
        fill-rule: evenodd;
      }

      .cls-3 {
        clip-path: url(#clippath);
        fill: none;
      }
    </style>
    <clipPath id="clippath">
      <path class="cls-1" d="m661.43,585.25H227.14c-101.58,0-94.06-55.5-72.66-114.04h202.22c36.21,0,73.59-29.63,83.23-65.84h0c9.65-35.98-11.99-65.6-47.96-65.6h-186.7l38.8-101.11,394.09.24c102.98,0,190.69,72.65,190.69,175.88s-83.94,170.48-167.42,170.48h0Zm-274.4-227.14c26.1,0,41.62,21.16,34.57,47.26-6.81,26.34-33.86,47.5-59.96,47.5s-41.86-21.17-34.79-47.5c7.05-26.1,33.85-47.26,60.19-47.26h0Z"/>
    </clipPath>
  </defs>
  <g id="Layer_1-2" data-name="Layer 1">
    <g>
      <path class="cls-2" d="m661.43,585.25H227.14c-101.58,0-94.06-55.5-72.66-114.04h202.22c36.21,0,73.59-29.63,83.23-65.84h0c9.65-35.98-11.99-65.6-47.96-65.6h-186.7l38.8-101.11,394.09.24c102.98,0,190.69,72.65,190.69,175.88s-83.94,170.48-167.42,170.48h0Zm-274.4-227.14c26.1,0,41.62,21.16,34.57,47.26-6.81,26.34-33.86,47.5-59.96,47.5s-41.86-21.17-34.79-47.5c7.05-26.1,33.85-47.26,60.19-47.26h0Z"/>
      <g class="cls-3">
        <polygon class="cls-2" points="927.38 475.68 845.07 525.05 559.39 49.38 641.68 0 927.38 475.68"/>
        <polygon class="cls-2" points="846.48 524.35 842.49 526.7 556.8 51.02 560.8 48.44 846.48 524.35"/>
        <polygon class="cls-2" points="843.66 525.99 839.91 528.35 553.98 52.44 557.98 50.08 843.66 525.99"/>
        <polygon class="cls-2" points="841.08 527.64 837.08 529.99 551.39 54.08 555.39 51.73 841.08 527.64"/>
        <polygon class="cls-2" points="838.5 529.05 834.5 531.64 548.81 55.72 552.8 53.37 838.5 529.05"/>
        <polygon class="cls-2" points="835.9 530.7 831.91 533.05 546.22 57.37 549.98 54.78 835.9 530.7"/>
        <polygon class="cls-2" points="833.08 532.34 829.08 534.69 543.4 58.78 547.39 56.43 833.08 532.34"/>
        <polygon class="cls-2" points="830.5 533.99 826.5 536.34 540.81 60.43 544.81 58.08 830.5 533.99"/>
        <polygon class="cls-2" points="827.91 535.4 823.92 537.99 538.22 62.08 542.22 59.72 827.91 535.4"/>
        <polygon class="cls-2" points="825.32 537.05 821.33 539.4 535.4 63.72 539.41 61.37 825.32 537.05"/>
        <polygon class="cls-2" points="822.51 538.69 818.5 541.04 532.82 65.13 536.81 62.78 822.51 538.69"/>
        <polygon class="cls-2" points="819.91 540.34 815.92 542.69 530.23 66.78 534.23 64.42 819.91 540.34"/>
        <polygon class="cls-2" points="817.33 541.98 813.34 544.34 527.64 68.42 531.64 66.07 817.33 541.98"/>
        <polygon class="cls-2" points="814.51 543.39 810.74 545.75 524.82 70.07 528.82 67.72 814.51 543.39"/>
        <polygon class="cls-2" points="811.93 545.04 807.92 547.39 522.24 71.71 526.23 69.13 811.93 545.04"/>
        <polygon class="cls-2" points="809.33 546.69 805.34 549.04 519.65 73.12 523.65 70.78 809.33 546.69"/>
        <polygon class="cls-2" points="806.75 548.33 802.76 550.68 517.06 74.77 520.82 72.42 806.75 548.33"/>
        <polygon class="cls-2" points="803.93 549.74 799.93 552.33 514.24 76.42 518.24 74.06 803.93 549.74"/>
        <polygon class="cls-2" points="801.34 551.39 797.34 553.74 511.65 78.06 515.65 75.48 801.34 551.39"/>
        <polygon class="cls-2" points="798.75 553.04 794.76 555.39 509.07 79.48 513.06 77.12 798.75 553.04"/>
        <polygon class="cls-2" points="796.17 554.68 792.17 557.03 506.25 81.12 510.24 78.77 796.17 554.68"/>
        <polygon class="cls-2" points="793.34 556.09 789.35 558.68 503.66 82.76 507.66 80.41 793.34 556.09"/>
        <polygon class="cls-2" points="790.76 557.74 786.77 560.09 501.07 84.41 505.07 82.06 790.76 557.74"/>
        <polygon class="cls-2" points="788.18 559.38 784.17 561.73 498.49 85.82 502.48 83.47 788.18 559.38"/>
        <polygon class="cls-2" points="785.36 561.03 781.59 563.38 495.67 87.47 499.66 85.12 785.36 561.03"/>
        <polygon class="cls-2" points="782.76 562.68 778.77 565.03 493.08 89.12 497.08 86.76 782.76 562.68"/>
        <polygon class="cls-2" points="780.18 564.09 776.18 566.44 490.49 90.76 494.49 88.41 780.18 564.09"/>
        <polygon class="cls-2" points="777.6 565.73 773.59 568.08 487.91 92.41 491.67 89.82 777.6 565.73"/>
        <polygon class="cls-2" points="774.77 567.38 770.78 569.73 485.08 93.82 489.08 91.46 774.77 567.38"/>
        <polygon class="cls-2" points="772.19 569.02 768.19 571.38 482.5 95.46 486.49 93.11 772.19 569.02"/>
        <polygon class="cls-2" points="769.6 570.43 765.6 573.02 479.91 97.11 483.91 94.76 769.6 570.43"/>
        <polygon class="cls-2" points="767.01 572.08 763.01 574.43 477.09 98.75 481.09 96.17 767.01 572.08"/>
        <polygon class="cls-2" points="764.19 573.73 760.2 576.08 474.5 100.16 478.51 97.81 764.19 573.73"/>
        <polygon class="cls-2" points="761.61 575.37 757.6 577.72 471.92 101.81 475.91 99.46 761.61 575.37"/>
        <polygon class="cls-2" points="759.01 576.78 755.02 579.37 469.33 103.46 473.33 101.11 759.01 576.78"/>
        <polygon class="cls-2" points="756.19 578.43 752.44 580.78 466.51 105.11 470.5 102.75 756.19 578.43"/>
        <polygon class="cls-2" points="753.61 580.08 749.61 582.43 463.92 106.52 467.93 104.16 753.61 580.08"/>
        <polygon class="cls-2" points="751.03 581.72 747.02 584.07 461.33 108.16 465.33 105.81 751.03 581.72"/>
        <polygon class="cls-2" points="748.43 583.37 744.44 585.72 458.75 109.81 462.51 107.45 748.43 583.37"/>
        <polygon class="cls-2" points="745.62 584.78 741.62 587.13 455.93 111.45 459.92 109.1 745.62 584.78"/>
        <polygon class="cls-2" points="743.03 586.42 739.03 588.78 453.34 113.1 457.34 110.51 743.03 586.42"/>
        <polygon class="cls-2" points="740.44 588.07 736.45 590.42 450.75 114.51 454.75 112.16 740.44 588.07"/>
        <polygon class="cls-2" points="737.85 589.72 733.86 592.07 447.93 116.15 451.93 113.8 737.85 589.72"/>
        <polygon class="cls-2" points="735.04 591.13 731.03 593.71 445.35 117.8 449.34 115.45 735.04 591.13"/>
        <polygon class="cls-2" points="732.44 592.77 728.45 595.12 442.76 119.45 446.76 116.86 732.44 592.77"/>
        <polygon class="cls-2" points="729.86 594.42 725.87 596.77 440.17 120.86 444.17 118.5 729.86 594.42"/>
        <polygon class="cls-2" points="727.04 596.06 723.27 598.42 437.35 122.5 441.35 120.15 727.04 596.06"/>
        <polygon class="cls-2" points="724.46 597.48 720.45 600.06 434.76 124.15 438.76 121.8 724.46 597.48"/>
        <polygon class="cls-2" points="721.86 599.12 717.87 601.47 432.19 125.79 436.18 123.45 721.86 599.12"/>
        <polygon class="cls-2" points="719.28 600.77 715.29 603.12 429.59 127.2 433.35 124.85 719.28 600.77"/>
        <polygon class="cls-2" points="716.46 602.41 712.46 604.76 426.77 128.85 430.77 126.5 716.46 602.41"/>
        <polygon class="cls-2" points="713.87 604.06 709.87 606.41 424.18 130.5 428.18 128.15 713.87 604.06"/>
        <polygon class="cls-2" points="711.28 605.47 707.29 607.82 421.6 132.15 425.59 129.79 711.28 605.47"/>
        <polygon class="cls-2" points="708.7 607.12 704.7 609.47 418.78 133.79 422.77 131.2 708.7 607.12"/>
        <polygon class="cls-2" points="705.87 608.76 701.88 611.11 416.19 135.2 420.19 132.85 705.87 608.76"/>
        <polygon class="cls-2" points="703.29 610.41 699.3 612.76 413.6 136.85 417.6 134.5 703.29 610.41"/>
        <polygon class="cls-2" points="700.7 611.82 696.7 614.4 411.02 138.49 415.01 136.14 700.7 611.82"/>
        <polygon class="cls-2" points="697.89 613.46 694.12 615.82 408.19 140.14 412.19 137.55 697.89 613.46"/>
        <polygon class="cls-2" points="695.29 615.11 691.3 617.46 405.61 141.55 409.6 139.2 695.29 615.11"/>
        <polygon class="cls-2" points="692.71 616.76 688.72 619.11 403.02 143.2 407.02 140.85 692.71 616.76"/>
        <polygon class="cls-2" points="690.13 618.17 686.12 620.75 400.43 144.84 404.2 142.49 690.13 618.17"/>
        <polygon class="cls-2" points="687.3 619.81 683.3 622.16 397.61 146.49 401.61 144.13 687.3 619.81"/>
        <polygon class="cls-2" points="684.71 621.46 680.72 623.81 395.03 147.9 399.02 145.55 684.71 621.46"/>
        <polygon class="cls-2" points="682.13 623.1 678.13 625.46 392.44 149.55 396.44 147.19 682.13 623.1"/>
        <polygon class="cls-2" points="679.54 624.75 675.54 627.1 389.62 151.19 393.62 148.84 679.54 624.75"/>
        <polygon class="cls-2" points="676.72 626.16 672.72 628.51 387.03 152.83 391.03 150.49 676.72 626.16"/>
        <polygon class="cls-2" points="674.14 627.81 670.13 630.16 384.45 154.48 388.44 151.9 674.14 627.81"/>
        <polygon class="cls-2" points="671.55 629.45 667.55 631.8 381.86 155.89 385.86 153.54 671.55 629.45"/>
        <polygon class="cls-2" points="668.72 631.1 664.97 633.45 379.04 157.54 383.03 155.19 668.72 631.1"/>
        <polygon class="cls-2" points="666.14 632.51 662.14 635.1 376.45 159.19 380.45 156.83 666.14 632.51"/>
        <polygon class="cls-2" points="663.55 634.16 659.55 636.51 373.86 160.83 377.86 158.25 663.55 634.16"/>
        <polygon class="cls-2" points="660.96 635.8 656.97 638.15 371.28 162.24 375.04 159.89 660.96 635.8"/>
        <polygon class="cls-2" points="658.14 637.45 654.15 639.8 368.46 163.89 372.45 161.54 658.14 637.45"/>
        <polygon class="cls-2" points="655.56 638.86 651.56 641.45 365.87 165.53 369.87 163.18 655.56 638.86"/>
        <polygon class="cls-2" points="652.97 640.5 648.97 642.86 363.28 167.18 367.28 164.83 652.97 640.5"/>
        <polygon class="cls-2" points="650.38 642.15 646.39 644.5 360.46 168.59 364.46 166.24 650.38 642.15"/>
        <polygon class="cls-2" points="647.56 643.8 643.56 646.15 357.88 170.23 361.87 167.89 647.56 643.8"/>
        <polygon class="cls-2" points="644.98 645.44 640.98 647.79 355.29 171.88 359.29 169.53 644.98 645.44"/>
        <polygon class="cls-2" points="642.39 646.85 638.39 649.2 352.7 173.53 356.7 171.17 642.39 646.85"/>
        <polygon class="cls-2" points="639.57 648.5 635.8 650.85 349.88 175.17 353.88 172.59 639.57 648.5"/>
        <polygon class="cls-2" points="636.99 650.15 632.98 652.5 347.29 176.59 351.29 174.23 636.99 650.15"/>
        <polygon class="cls-2" points="634.39 651.79 630.4 654.14 344.71 178.23 348.71 175.88 634.39 651.79"/>
        <polygon class="cls-2" points="631.81 653.2 627.81 655.79 342.12 179.87 345.88 177.53 631.81 653.2"/>
        <polygon class="cls-2" points="628.99 654.85 624.99 657.2 339.3 181.52 343.3 178.93 628.99 654.85"/>
        <polygon class="cls-2" points="626.4 656.49 622.4 658.85 336.71 182.93 340.71 180.58 626.4 656.49"/>
        <polygon class="cls-2" points="623.81 658.14 619.82 660.49 334.13 184.58 338.12 182.23 623.81 658.14"/>
        <polygon class="cls-2" points="621.23 659.55 617.23 662.14 331.31 186.23 335.3 183.87 621.23 659.55"/>
        <polygon class="cls-2" points="618.4 661.2 614.41 663.56 328.72 187.87 332.72 185.52 618.4 661.2"/>
        <polygon class="cls-2" points="615.82 662.84 611.82 665.19 326.13 189.28 330.13 186.93 615.82 662.84"/>
        <polygon class="cls-2" points="613.23 664.49 609.23 666.84 323.55 190.93 327.54 188.57 613.23 664.49"/>
        <polygon class="cls-2" points="610.42 666.13 606.65 668.49 320.72 192.57 324.72 190.22 610.42 666.13"/>
        <polygon class="cls-2" points="607.82 667.55 603.83 669.9 318.14 194.22 322.14 191.87 607.82 667.55"/>
        <polygon class="cls-2" points="605.24 669.19 601.25 671.54 315.55 195.87 319.55 193.28 605.24 669.19"/>
        <polygon class="cls-2" points="602.65 670.84 598.65 673.2 312.96 197.27 316.73 194.93 602.65 670.84"/>
        <polygon class="cls-2" points="599.83 672.48 595.83 674.83 310.14 198.92 314.14 196.57 599.83 672.48"/>
        <polygon class="cls-2" points="597.24 673.89 593.25 676.48 307.56 200.57 311.55 198.22 597.24 673.89"/>
        <polygon class="cls-2" points="594.66 675.54 590.66 677.89 304.97 202.22 308.97 199.63 594.66 675.54"/>
        <polygon class="cls-2" points="592.08 677.19 588.07 679.54 302.15 203.63 306.15 201.27 592.08 677.19"/>
        <polygon class="cls-2" points="589.25 678.83 585.25 681.18 299.56 205.27 303.56 202.92 589.25 678.83"/>
        <polygon class="cls-2" points="586.66 680.24 582.66 682.83 296.98 206.92 300.97 204.57 586.66 680.24"/>
        <polygon class="cls-2" points="584.08 681.89 580.08 684.24 294.39 208.56 298.39 206.21 584.08 681.89"/>
        <polygon class="cls-2" points="581.25 683.53 577.49 685.89 291.57 209.97 295.57 207.62 581.25 683.53"/>
        <polygon class="cls-2" points="578.67 685.18 574.68 687.53 288.98 211.62 292.98 209.27 578.67 685.18"/>
        <polygon class="cls-2" points="576.08 686.83 572.08 689.18 286.39 213.27 290.39 210.92 576.08 686.83"/>
        <polygon class="cls-2" points="573.49 688.24 569.5 690.59 283.81 214.91 287.57 212.56 573.49 688.24"/>
        <polygon class="cls-2" points="570.67 689.88 566.68 692.23 280.99 216.56 284.98 213.97 570.67 689.88"/>
        <polygon class="cls-2" points="568.09 691.53 564.09 693.88 278.4 217.97 282.4 215.62 568.09 691.53"/>
        <polygon class="cls-2" points="565.5 693.17 561.5 695.53 275.81 219.62 279.81 217.26 565.5 693.17"/>
        <polygon class="cls-2" points="562.91 694.59 558.92 697.17 272.99 221.26 276.99 218.91 562.91 694.59"/>
        <polygon class="cls-2" points="560.09 696.23 556.09 698.58 270.41 222.91 274.4 220.32 560.09 696.23"/>
        <polygon class="cls-2" points="557.51 697.88 553.51 700.23 267.82 224.32 271.82 221.97 557.51 697.88"/>
        <polygon class="cls-2" points="554.92 699.52 550.92 701.87 265.24 225.96 269.23 223.61 554.92 699.52"/>
        <polygon class="cls-2" points="552.1 700.93 548.34 703.52 262.41 227.61 266.41 225.26 552.1 700.93"/>
        <polygon class="cls-2" points="549.51 702.58 545.51 704.93 259.82 229.26 263.82 226.9 549.51 702.58"/>
        <polygon class="cls-2" points="546.92 704.23 542.93 706.58 257.24 230.67 261.24 228.32 546.92 704.23"/>
        <polygon class="cls-2" points="544.34 705.87 540.35 708.22 254.65 232.31 258.41 229.96 544.34 705.87"/>
        <polygon class="cls-2" points="541.52 707.53 537.52 709.87 251.83 233.96 255.83 231.61 541.52 707.53"/>
        <polygon class="cls-2" points="538.93 708.93 534.93 711.28 249.24 235.6 253.24 233.25 538.93 708.93"/>
        <polygon class="cls-2" points="536.34 710.57 532.35 712.93 246.66 237.25 250.65 234.66 536.34 710.57"/>
        <polygon class="cls-2" points="533.76 712.22 529.76 714.57 243.84 238.66 247.84 236.31 533.76 712.22"/>
        <polygon class="cls-2" points="530.94 713.87 526.94 716.23 241.25 240.31 245.25 237.96 530.94 713.87"/>
        <polygon class="cls-2" points="528.35 715.28 524.35 717.86 238.66 241.95 242.66 239.6 528.35 715.28"/>
        <polygon class="cls-2" points="525.76 716.92 521.76 719.27 236.08 243.6 240.07 241.01 525.76 716.92"/>
        <polygon class="cls-2" points="522.95 718.57 519.18 720.92 233.25 245.01 237.25 242.66 522.95 718.57"/>
        <polygon class="cls-2" points="520.35 720.22 516.36 722.57 230.67 246.66 234.67 244.3 520.35 720.22"/>
        <polygon class="cls-2" points="517.77 721.63 513.77 724.21 228.08 248.3 232.08 245.95 517.77 721.63"/>
        <polygon class="cls-2" points="515.18 723.27 511.18 725.62 225.5 249.95 229.26 247.6 515.18 723.27"/>
        <polygon class="cls-2" points="512.36 724.92 508.36 727.27 222.67 251.36 226.67 249.01 512.36 724.92"/>
        <polygon class="cls-2" points="509.77 726.56 505.78 728.92 220.09 253 224.08 250.65 509.77 726.56"/>
        <polygon class="cls-2" points="507.19 728.21 503.19 730.56 217.5 254.65 221.5 252.3 507.19 728.21"/>
        <polygon class="cls-2" points="504.61 729.62 500.6 731.97 214.68 256.3 218.68 253.94 504.61 729.62"/>
        <polygon class="cls-2" points="501.78 731.27 497.78 733.63 212.09 257.94 216.09 255.36 501.78 731.27"/>
        <polygon class="cls-2" points="499.19 732.91 495.19 735.26 209.51 259.35 213.5 257 499.19 732.91"/>
        <polygon class="cls-2" points="496.61 734.56 492.61 736.91 206.92 261 210.92 258.65 496.61 734.56"/>
        <polygon class="cls-2" points="493.78 735.98 490.02 738.56 204.1 262.64 208.1 260.29 493.78 735.98"/>
        <polygon class="cls-2" points="491.2 737.62 487.2 739.97 201.51 264.29 205.51 261.7 491.2 737.62"/>
        <polygon class="cls-2" points="488.61 739.26 484.61 741.61 198.93 265.7 202.92 263.35 488.61 739.26"/>
        <polygon class="cls-2" points="486.02 740.91 482.03 743.27 196.34 267.34 200.1 265 486.02 740.91"/>
        <polygon class="cls-2" points="483.2 742.33 479.2 744.9 193.52 268.99 197.51 266.64 483.2 742.33"/>
        <polygon class="cls-2" points="480.62 743.96 476.63 746.32 190.93 270.64 194.93 268.29 480.62 743.96"/>
        <polygon class="cls-2" points="478.03 745.61 474.03 747.96 188.34 272.05 192.34 269.7 478.03 745.61"/>
        <polygon class="cls-2" points="475.44 747.26 471.45 749.61 185.52 273.7 189.52 271.34 475.44 747.26"/>
        <polygon class="cls-2" points="472.62 748.9 468.62 751.25 182.94 275.34 186.93 272.99 472.62 748.9"/>
        <polygon class="cls-2" points="470.03 750.31 466.04 752.66 180.35 276.99 184.35 274.64 470.03 750.31"/>
        <polygon class="cls-2" points="467.45 751.97 463.45 754.31 177.76 278.63 181.76 276.05 467.45 751.97"/>
        <polygon class="cls-2" points="464.63 753.6 460.86 755.96 174.94 280.04 178.94 277.69 464.63 753.6"/>
        <polygon class="cls-2" points="462.04 755.25 458.04 757.6 172.35 281.69 176.35 279.34 462.04 755.25"/>
        <polygon class="cls-2" points="459.45 756.66 455.46 759.25 169.77 283.34 173.77 280.99 459.45 756.66"/>
        <polygon class="cls-2" points="456.87 758.31 452.87 760.67 167.18 284.98 170.94 282.4 456.87 758.31"/>
        <polygon class="cls-2" points="454.05 759.95 450.06 762.3 164.36 286.39 168.36 284.04 454.05 759.95"/>
        <polygon class="cls-2" points="451.46 761.6 447.46 763.95 161.77 288.04 165.77 285.69 451.46 761.6"/>
        <polygon class="cls-2" points="448.87 763.01 444.88 765.6 159.19 289.69 163.18 287.33 448.87 763.01"/>
        <polygon class="cls-2" points="446.29 764.66 442.29 767.01 156.37 291.33 160.36 288.98 446.29 764.66"/>
        <polygon class="cls-2" points="443.46 766.3 439.47 768.65 153.78 292.74 157.78 290.39 443.46 766.3"/>
        <polygon class="cls-2" points="440.88 767.95 436.88 770.31 151.19 294.39 155.19 292.04 440.88 767.95"/>
        <polygon class="cls-2" points="438.29 769.59 434.29 771.94 148.61 296.03 152.6 293.68 438.29 769.59"/>
        <polygon class="cls-2" points="435.47 771 431.71 773.36 145.78 297.68 149.78 295.33 435.47 771"/>
        <polygon class="cls-2" points="432.88 772.65 428.89 775 143.2 299.33 147.2 296.74 432.88 772.65"/>
        <polygon class="cls-2" points="430.3 774.3 426.3 776.65 140.61 300.74 144.61 298.39 430.3 774.3"/>
        <polygon class="cls-2" points="427.71 775.94 423.71 778.29 138.03 302.38 141.78 300.03 427.71 775.94"/>
        <polygon class="cls-2" points="424.89 777.35 420.89 779.95 135.2 304.03 139.2 301.68 424.89 777.35"/>
        <polygon class="cls-2" points="422.3 779 418.3 781.35 132.62 305.67 136.61 303.09 422.3 779"/>
        <polygon class="cls-2" points="419.72 780.64 415.72 783 130.03 307.09 134.03 304.73 419.72 780.64"/>
        <polygon class="cls-2" points="417.13 782.29 413.13 784.64 127.21 308.73 131.21 306.38 417.13 782.29"/>
        <polygon class="cls-2" points="414.31 783.7 410.31 786.3 124.62 310.38 128.62 308.03 414.31 783.7"/>
        <polygon class="cls-2" points="411.72 785.35 407.72 787.71 122.04 312.02 126.03 309.67 411.72 785.35"/>
        <polygon class="cls-2" points="409.13 786.99 405.14 789.34 119.45 313.43 123.45 311.08 409.13 786.99"/>
        <polygon class="cls-2" points="406.55 788.64 402.55 790.99 116.63 315.08 120.63 312.73 406.55 788.64"/>
        <polygon class="cls-2" points="403.73 790.29 399.73 792.64 114.04 316.73 118.04 314.37 403.73 790.29"/>
        <polygon class="cls-2" points="401.14 791.7 397.14 794.05 111.46 318.37 115.45 316.02 401.14 791.7"/>
        <polygon class="cls-2" points="398.55 793.34 394.56 795.69 108.87 320.02 112.63 317.43 398.55 793.34"/>
        <polygon class="cls-2" points="395.73 795 391.97 797.34 106.05 321.43 110.04 319.08 395.73 795"/>
        <polygon class="cls-2" points="393.15 796.63 389.15 798.99 103.46 323.07 107.46 320.72 393.15 796.63"/>
        <polygon class="cls-2" points="390.56 798.04 386.56 800.63 100.87 324.72 104.87 322.37 390.56 798.04"/>
        <polygon class="cls-2" points="387.97 799.69 383.98 802.04 98.05 326.37 102.05 323.78 387.97 799.69"/>
        <polygon class="cls-2" points="385.15 801.34 381.15 803.7 95.47 327.78 99.46 325.43 385.15 801.34"/>
        <polygon class="cls-2" points="382.56 802.98 378.57 805.33 92.88 329.42 96.88 327.07 382.56 802.98"/>
        <polygon class="cls-2" points="379.98 804.39 375.98 806.98 90.29 331.07 94.29 328.71 379.98 804.39"/>
        <polygon class="cls-2" points="377.39 806.05 373.39 808.39 87.47 332.71 91.47 330.36 377.39 806.05"/>
        <polygon class="cls-2" points="374.57 807.68 370.57 810.04 84.89 334.13 88.88 331.77 374.57 807.68"/>
        <polygon class="cls-2" points="371.98 809.33 367.99 811.68 82.3 335.77 86.3 333.42 371.98 809.33"/>
        <polygon class="cls-2" points="369.4 810.98 365.4 813.34 79.71 337.42 83.47 335.07 369.4 810.98"/>
        <polygon class="cls-2" points="366.58 812.4 362.81 814.75 76.89 339.06 80.89 336.71 366.58 812.4"/>
        <polygon class="cls-2" points="363.99 814.03 359.99 816.38 74.3 340.71 78.3 338.12 363.99 814.03"/>
        <polygon class="cls-2" points="361.4 815.69 357.41 818.03 71.71 342.12 75.71 339.77 361.4 815.69"/>
        <polygon class="cls-2" points="358.82 817.33 354.82 819.68 68.9 343.77 72.89 341.41 358.82 817.33"/>
        <polygon class="cls-2" points="355.99 818.74 352 821.32 66.31 345.41 70.31 343.06 355.99 818.74"/>
        <polygon class="cls-2" points="353.41 820.38 349.41 822.73 63.72 347.06 67.72 344.47 353.41 820.38"/>
        <polygon class="cls-2" points="350.82 822.03 346.82 824.39 61.14 348.47 65.13 346.12 350.82 822.03"/>
        <polygon class="cls-2" points="348.24 823.68 344.25 826.03 58.31 350.11 62.31 347.76 348.24 823.68"/>
        <polygon class="cls-2" points="345.41 825.09 341.42 827.67 55.73 351.76 59.73 349.41 345.41 825.09"/>
        <polygon class="cls-2" points="342.83 826.73 338.83 829.08 53.14 353.41 57.14 351.06 342.83 826.73"/>
        <polygon class="cls-2" points="340.24 828.38 336.24 830.73 50.56 354.82 54.32 352.47 340.24 828.38"/>
        <polygon class="cls-2" points="337.42 830.02 333.66 832.38 47.73 356.46 51.73 354.11 337.42 830.02"/>
        <polygon class="cls-2" points="334.83 831.67 330.84 834.02 45.15 358.11 49.14 355.76 334.83 831.67"/>
        <polygon class="cls-2" points="332.25 833.08 328.25 835.43 42.56 359.75 46.56 357.4 332.25 833.08"/>
        <polygon class="cls-2" points="329.66 834.73 325.66 837.08 39.74 361.4 43.74 358.81 329.66 834.73"/>
        <polygon class="cls-2" points="326.84 836.37 322.84 838.72 37.15 362.81 41.15 360.46 326.84 836.37"/>
        <polygon class="cls-2" points="324.25 838.02 320.25 840.37 34.57 364.46 38.56 362.11 324.25 838.02"/>
        <polygon class="cls-2" points="321.66 839.43 317.67 842.02 31.98 366.1 35.97 363.75 321.66 839.43"/>
        <polygon class="cls-2" points="319.08 841.08 315.08 843.43 29.16 367.75 33.16 365.16 319.08 841.08"/>
        <polygon class="cls-2" points="316.26 842.72 312.26 845.07 26.57 369.16 30.57 366.81 316.26 842.72"/>
        <polygon class="cls-2" points="313.67 844.37 309.67 846.72 23.99 370.81 27.98 368.45 313.67 844.37"/>
        <polygon class="cls-2" points="311.08 845.78 307.09 848.36 21.4 372.45 25.16 370.1 311.08 845.78"/>
        <polygon class="cls-2" points="308.26 847.42 304.5 849.78 18.58 374.1 22.57 371.75 308.26 847.42"/>
        <polygon class="cls-2" points="305.68 849.07 301.68 851.43 15.99 375.51 19.99 373.16 305.68 849.07"/>
        <polygon class="cls-2" points="303.09 850.72 299.09 853.07 13.4 377.15 17.4 374.8 303.09 850.72"/>
        <polygon class="cls-2" points="300.5 852.36 296.51 854.71 10.58 378.8 14.58 376.45 300.5 852.36"/>
        <polygon class="cls-2" points="297.68 853.77 293.68 856.12 8 380.45 11.99 378.1 297.68 853.77"/>
        <polygon class="cls-2" points="295.09 855.42 291.1 857.77 5.41 382.09 9.4 379.51 295.09 855.42"/>
        <polygon class="cls-2" points="292.51 857.06 288.51 859.42 2.82 383.5 6.82 381.15 292.51 857.06"/>
        <polygon class="cls-2" points="289.92 858.72 285.92 861.07 0 385.15 4 382.8 289.92 858.72"/>
        <polygon class="cls-2" points="287.1 860.12 289.69 858.72 4 382.8 1.41 384.44 287.1 860.12"/>
      </g>
    </g>
  </g>
</svg>