<?xml version="1.0" encoding="UTF-8"?>
<svg id="Layer_2" data-name="Layer 2" xmlns="http://www.w3.org/2000/svg" viewBox="0 0 154.11 153.76">
  <defs>
    <style>
      .cls-1 {
        fill: #fff;
      }
    </style>
  </defs>
  <g id="Layer_1-2" data-name="Layer 1">
    <g>
      <path class="cls-1" d="m144.21,102.35c.15-.53.31-1.05.46-1.58.23-.66.45-1.33.68-1.99.83-3.5,1.66-7,2.49-10.5.08-.2.16-.41.23-.61.11-.4.23-.8.34-1.2,0-.31.01-.61.02-.92.09-.6.19-1.19.28-1.79,0-.41.01-.81.02-1.22.09-1.76.25-3.52.24-5.29-.01-2.01.33-4.25-.44-5.96-.58-1.27.25-2.17-.17-3.17-.01-.2-.02-.4-.03-.6-.41-2.17-.82-4.35-1.27-6.69-1.79.52-3.57,1.02-5.34,1.57-4.36,1.34-8.28.43-11.95-2.17-.73-.52-1.8-.74-2.73-.78-1.64-.08-2.57,1.37-1.98,2.92.22.58.42,1.27.85,1.64,1.61,1.37,1.02,3.07.9,4.72-.62.89-1.24,1.78-1.87,2.67-2.52,1.42-5.12,1.12-7.74.33-.41-.12-.81-.38-1.21-.39-.88,0-2.12-.23-2.57.24-.94.98-.52,2.35.24,3.35,1.14,1.5,2.4,2.94,4.39,3.37.3.1.6.19.9.29,1.3.73,2.6,1.47,3.89,2.2.29.29.59.59.88.88.33,1.4.66,2.8.99,4.19-.25.61-.5,1.22-.74,1.83-.17.29-.34.57-.51.86-.38.51-.76,1.01-1.14,1.52-.32.4-.64.8-.96,1.2-1.14-.08-.54,1.17-1.14,1.5-.22.3-.44.6-.66.91-1.14-.08-.54,1.19-1.17,1.51-.61,1.19-1.76.82-2.73.94-.3,0-.6,0-.9,0-.98.16-1.95.33-3.03.51.14-.43.25-.79.36-1.14.17-.2.33-.41.5-.61.22-.22.45-.45.67-.67.08-.08.16-.15.24-.23l.09-.29c.2-.3.4-.6.59-.9.1-.19.19-.38.29-.58.28-.31.56-.62.84-.94.62-.89,1.25-1.77,1.87-2.66.3-.31.61-.63.91-.94.1-.19.19-.38.29-.57.28-.31.56-.63.84-.94.97-1.24.91-1.48-.53-2.22-.42-.22-.85-.42-1.27-.62-.38-.16-.76-.32-1.14-.48-.9-.4-1.8-.81-2.7-1.21-.2-.17-.41-.33-.61-.5-2.4-1.57-3.76-3.8-4.56-6.55-1.18-4.06,1.71-8.22,5.87-8.26.79,0,1.57-.23,2.47-.38.81,1.08,2.76,1.71,5.32,1.49-.54-1.32-1.16-2.56-1.57-3.86-.73-2.36-.59-4.68,1.12-6.6,1.82-2.05,4.07-3.27,6.89-2.34,1.72.57,3.53,1.18,4.99,2.21,2.2,1.55,4.42,1.58,6.81.92,1.54-.42,3.05-.94,4.59-1.34.75-.2.99-.5.66-1.25-1.06-2.37-2.09-4.76-3.12-7.15-.82-1.89-1.55-3.83-2.45-5.68-2.17-4.48-5.19-8.38-8.36-12.17-5.21-6.22-11.38-11.31-18.32-15.48-.28-.17-.62-.25-.94-.37-.2-.1-.4-.2-.6-.3-2.12-1-4.24-1.98-6.35-3-.73-.35-1.38-.91-2.14-1.15-.64-.2-1.61-.37-2.03-.04-.45.35-.62,1.32-.58,2,.11,2,.36,4,.58,5.99.17,1.5.53,2.99.51,4.48-.01.95-.56,1.9-.86,2.84-.19.3-.39.61-.58.91-1.48,2.18-3.71,2.1-6,2.15-2.4.05-4.81.29-7.2.59-1.72.21-2.89,1.78-3.01,3.53-.2,2.93-1.5,5.39-3.46,7.51-.2.22-.65.2-.93.37-1.02.64-2.02,1.32-3.03,1.98.04.23.08.45.12.68.58.21,1.15.6,1.73.6,5.01.05,10.01.03,15.02.03h3.73c1.09.41,2.07.78,3.06,1.15.3.1.6.2.9.29,3.54,1.47,5.47,4.45,6.43,7.84.47,1.65-.22,3.76-.81,5.52-.62,1.85-2.38,2.88-4.15,3.48-3.44,1.18-7.02.7-10.55.42-2.12-.17-4.24-.49-6.33-.93-2.21-.46-4.34-1.27-6.55-1.7-3.99-.77-8.02-1.39-12.03.01-.99.35-1.98.72-2.96,1.08-.3.17-.61.34-.91.51-1.61,1.51-3.21,3.02-4.82,4.53-.2.3-.4.6-.6.9-.11.2-.22.39-.33.59-.19.39-.38.78-.57,1.17-1.28,2.58-2.03,5.24-1.51,8.17.14.77.02,1.58.02,2.38-.07.07-.15.15-.22.22.08.01.15.03.23.04.09.04.18.07.28.07.38.67-.39,1.84.91,2.12.07.19.14.37.21.56.23.32.46.63.69.95.7.6,1.4,1.2,2.1,1.8.66.38,1.32.76,1.98,1.13.24.12.47.24.71.36.21.08.41.15.62.23.28.09.56.19.85.28l1.26.62c.08.05.17.08.27.07.21.08.42.16.63.23.2,0,.4,0,.6,0,.4.1.8.2,1.2.3,2.1-.11,4.21-.21,6.31-.32.3.11.6.21.9.32.5.02,1,.05,1.49.07.69.2,1.39.39,2.08.59-.39.1-.78.28-1.17.28-6.31.02-12.61.03-18.92-.01-.59,0-1.19-.38-1.78-.59l-.62-.22c-.1-.03-.2-.07-.29-.1-.3-.3-.6-.59-.91-.89-.2-.2-.39-.39-.59-.59l-.59-.61c-.24-.5-.47-1-.71-1.49-.07-.07-.15-.14-.22-.21-.4-.63-.8-1.27-1.19-1.9-.12-.4-.24-.8-.37-1.2-.38-2.59-.82-5.18-1.09-7.78-.07-.66.47-1.36.62-2.06.32-1.45.48-2.94.88-4.36.16-.57.83-.98,1.16-1.53,2.85-4.67,6.49-8.39,11.84-10.15.89-.3,1.7-.86,2.55-1.28.16-.08.36-.11.54-.1,1.27.06,2.55.24,3.82.2,5.21-.16,10.18,1.08,15.12,2.53.93.27,1.91,1,2.62-.01.6.31,1.07.74,1.56.77,2.87.16,5.76.35,8.63.26.9-.03,1.96-.03,2.6-1.64.71-1.78.36-2.99-.36-4.33-.81-1.5-2.29-2.29-3.88-2.63-1.76-.37-3.58-.58-5.38-.61-4.55-.08-9.1-.05-13.66-.02-2.4.02-4.58-.55-6.16-2.44-1.09-1.31-.77-2.97-.46-4.46.22-1.04.87-1.99,1.33-2.98.51-.51,1.01-1.02,1.52-1.53,1.78-.61,3.58-1.44,3.81-3.47.18-1.62.61-3.17.86-4.76.16-.36.31-.72.47-1.08,1.28-1,2.57-2,3.85-3,.6-.2,1.2-.4,1.81-.59,3.13-.21,6.27-.45,9.4-.62,1.15-.06,1.44-.8,1.38-1.66-.15-2.04-.44-4.06-.68-6.09-.08-.73-.17-1.46-.25-2.18,0-.2,0-.4,0-.6,0-.3,0-.6-.01-.9l.02-.9c.22-1.14.44-2.28.67-3.46-2.73-.63-5.44-1.25-8.14-1.88-.2,0-.4-.01-.6-.02-.5-.03-.99-.06-1.49-.08-.2-.08-.41-.15-.61-.23-.7-.09-1.4-.18-2.1-.28-.2,0-.4-.02-.6-.02h-9.85v6.57c-.2.7-.4,1.4-.61,2.1-.31.67-.62,1.34-.93,2.01-.81.72-1.63,1.45-2.44,2.17l-3.59,1.59-.91.51c-.3.1-.6.2-.9.29-.6.3-1.2.6-1.8.9-1.2.81-2.4,1.62-3.6,2.43-.87.3-1.64.68-1.43,1.82-.23.6-.46,1.19-.7,1.79-.19.19-.38.38-.57.57-.98.29-1.91.75-2.85-.22-1-1.03-1.33-2.24-.95-3.51.57-1.87,1.68-3.42,3.43-4.43,2.53-1.45,5.06-2.92,7.59-4.39.3-.1.6-.19.91-.29,1.28-.71,2.56-1.42,3.84-2.14l.31-.9c.1-1.9.2-3.81.3-5.71-.18-.28-.37-.56-.55-.84-.5.1-1,.19-1.5.29-.2,0-.4,0-.6.01-.81.17-1.61.33-2.42.5l-1.19.08c-1.9.5-3.81,1-5.71,1.51-.11.07-.22.15-.33.22h.01c-.99.31-1.99.64-2.98.97-2.68,1.12-5.37,2.22-8.04,3.36-.95.41-1.86.91-2.79,1.38-.3.2-.6.39-.9.59-.73.43-1.47.85-2.18,1.27,3.07,6.18,4.84,12.21,1.02,18.51l-.67.98c-1.39,1.02-2.77,2.05-4.16,3.07-.6.3-1.2.59-1.8.89-1.72.85-3.52,1.57-5.13,2.59-1.5.95-2.81,2.22-4.2,3.35-.5.5-1,1-1.5,1.5-1,.8-2,1.6-3,2.4-.3.2-.6.4-.9.6-1.45.53-2.87,1.16-4.36,1.56-.78.21-1.69.12-2.49-.04-1.09-.21-2-.34-2.4,1.01-.12.4-.39.75-.59,1.12-.1.4-.2.8-.3,1.2-.3.9-.6,1.8-.9,2.7-.1.3-.19.6-.29.9-.31,1.55-.61,3.11-.91,4.59,1.98.35,3.97.71,5.95,1.06.4.1.8.2,1.2.3.4.2.8.4,1.2.6.5.23.99.46,1.49.69.2.1.4.19.61.29.3.2.6.41.9.61.96,1.37,2.71,2.21,2.85,4.16.03.49.15.97.17,1.45.11,3.65.18,7.3.33,10.95.03.69.41,1.36.63,2.04.08.11.16.21.24.32,0,.1.03.19.08.28.37.41.75.82,1.12,1.24.9.9,1.8,1.8,2.7,2.7l1.2.9c.5.5,1,1,1.5,1.5.32.33.64.66.96.99.02.07.06.11.13.13.44.43.87.85,1.31,1.28.8,1.39,1.6,2.79,2.4,4.18.12.4.25.8.37,1.19-.03.4-.05.8-.08,1.19.03.8.05,1.61.08,2.41-.4,1.7-.8,3.4-1.2,5.11-.08.3-.17.6-.25.9-.12.3-.23.6-.35.9-.1.3-.19.6-.29.9-.22,1.58-.45,3.16-.66,4.74-.11.82-.17,1.65-.25,2.47.08.08.16.16.25.24.1.82.19,1.63.29,2.45-.99.36-.29.98-.23,1.51-.1.5-.2,1-.3,1.5-.5.9-.99,1.8-1.49,2.7-.52.49-1.05.99-1.57,1.48-.1.03-.2.06-.3.09-.1.08-.21.16-.31.23.6.81,1.21,1.61,1.81,2.42.5.41,1,.81,1.49,1.22.3.2.6.4.9.6.7.6,1.4,1.2,2.1,1.8.12.19.24.38.36.57-.02,1.02.05,2.06-.09,3.06-.06.44-.56.81-.86,1.21-.1,0-.2.02-.31.02-.79-.34-1.58-.67-2.37-1.01-.31-.28-.62-.56-.94-.84-.2-.13-.39-.26-.59-.39-.3-.3-.6-.6-.9-.9-.29-.19-.59-.39-.88-.58-.31-.3-.62-.61-.93-.91-2.2-2.2-4.4-4.4-6.6-6.59-.3-.41-.61-.82-.91-1.23-.52-.69-1.05-1.38-1.57-2.07-.38-.31-.75-.62-1.13-.94-.32-.49-.65-.98-.97-1.47-.27-.31-.53-.61-.8-.92-.74-1.2-1.48-2.39-2.22-3.59-.16-.21-.33-.41-.49-.62-.19-.3-.39-.61-.58-.91-.11-.2-.21-.4-.32-.6-.4-.7-.81-1.4-1.21-2.1-.3-.6-.6-1.2-.9-1.8-.2-.4-.4-.8-.6-1.2-.16-.38-.33-.76-.49-1.14-.54-1.22-1.07-2.45-1.61-3.67-.15-.36-.29-.73-.44-1.09-.16-.44-.32-.87-.48-1.31-.14-.36-.28-.73-.42-1.09-.18-.54-.36-1.07-.55-1.61-.18-.51-.36-1.02-.54-1.54-.22-.79-.44-1.58-.66-2.37-.17-.71-.34-1.41-.52-2.12-.34-2.06-.71-4.12-1.02-6.19-.2-1.33-.32-2.67-.48-4C.22,83.87.11,83.36,0,82.86c0-1.2,0-2.4,0-3.61v-2.1C0,74.95,0,72.75,0,70.54c.1-.25.26-.49.3-.74.31-2.37.5-4.77.93-7.11,1.14-6.2,3.02-12.2,5.69-17.91,4.97-10.59,11.78-19.76,20.91-27.2,4.23-3.45,8.69-6.49,13.53-8.98,5.77-2.97,11.84-5.1,18.16-6.63C65.2.59,70.95.15,76.73.01c3.52-.09,7.1.33,10.59.88,4.1.65,8.2,1.48,12.19,2.62,8.12,2.32,15.52,6.15,22.38,11.11,6.5,4.7,12.11,10.26,16.88,16.69,6.23,8.39,10.47,17.72,12.89,27.85.91,3.82,1.28,7.78,1.9,11.67-.02.15-.05.3-.05.45-.04,4.05.74,8.14-.57,12.14-.05.16.21.42.32.63-.3,2.5-.6,5.01-.9,7.51-.1.3-.2.6-.3.9-.1.6-.2,1.2-.3,1.8-.1.4-.2.8-.3,1.2-.1.4-.2.8-.3,1.2-.1.3-.19.6-.29.9-1.01,2.9-2.01,5.81-3.02,8.71l-.07.56c-.49-.47-1-.91-1.45-1.41-.34-.38-.6-.84-.9-1.27l-1.22-1.83Zm-115.62-2.97c-1.23-2.83-3.57-4.69-5.89-6.49-3.59-2.8-6.06-6.21-6.46-10.83-.24-2.76-.4-5.55-.28-8.31.14-3.22-1.03-3.94-4.02-4.99-1.71-.6-3.55-.83-5.33-1.22-1.02-.23-1.37.54-1.47,1.24-.21,1.35-.19,2.73-.35,4.09-.14,1.23-.41,2.45-.56,3.67-.04.29.15.61.24.91.1.2.21.4.31.6.11,2.07.16,4.16.34,6.22.25,2.86.46,5.73.97,8.55.32,1.77,1.03,3.5,1.74,5.17,2.16,5.1,4.1,10.32,6.7,15.19,1.94,3.63,4.71,6.81,7.2,10.14,1.09,1.46,3.8.93,4.28-.85.35-1.3.6-2.77.36-4.07-.74-4.07.13-7.86,1.5-11.62.83-2.29,1.65-4.59.97-7.08-.08-.11-.16-.21-.24-.32ZM11.76,45.81c.18.17.24.28.32.3.19.05.38.08.58.08,3.35.09,5.35-2.28,7.58-4.19,1.33-1.14,2.41-2.65,3.87-3.56,2.57-1.6,5.35-2.85,8.03-4.26,1.96-1.03,4.05-2.13,4.7-4.36,1.19-4.11.1-7.95-1.95-11.59-10.1,7.29-17.74,16.47-23.13,27.58Z"/>
      <path class="cls-1" d="m105.14,94.82c1.34,1.18,1.8,2.72,1.8,4.44,0,10.41,0,20.82,0,31.23v1.56h3.6c0-.51,0-1.05,0-1.58,0-8.31,0-16.61,0-24.92,0-2.5,2.03-4.63,4.53-4.65,6.55-.04,13.11-.1,19.66.05,1.35.03,2.68.94,4.02,1.44.4.6.8,1.2,1.2,1.81.8,1.22,1.61,2.43,2.41,3.65.31.49.61.98.92,1.47.7,1.09,1.4,2.19,2.1,3.28l1.2,1.83c.7,1.09,1.4,2.19,2.1,3.28.4.61.8,1.22,1.21,1.83.62.99,1.24,1.98,1.86,2.97.27.41.55.81.82,1.22.23.5.46.99.69,1.49.18,1.14.51,2.29.52,3.44.07,3.9.06,7.8.02,11.71-.04,3.77-3.32,6.3-6.3,6.2-2.05-.07-4.1-.01-6.05-.01-.41.9-.7,1.77-1.17,2.53-1.52,2.5-3.85,3.89-6.6,4.68h-3.6c-.55-.22-1.12-.42-1.66-.66-2.89-1.3-4.73-3.53-5.64-6.52h-42.62c-.39.87-.69,1.74-1.15,2.5-1.52,2.5-3.85,3.9-6.6,4.68h-3.6c-1.29-.61-2.58-1.21-3.87-1.82-.61-.61-1.21-1.22-1.82-1.83-.56-1.17-1.12-2.34-1.71-3.57-6.1,0-12.23,0-18.37,0-2.45,0-4.59-2.12-4.55-4.58.04-2.37.19-4.73.29-7.09.3-.41.61-.82.91-1.22.09-.1.19-.19.28-.29.68-.61,1.36-1.22,2.04-1.83.02-10.95.03-21.91.05-32.86,0-2.47,1.29-4.2,3.63-4.86.42-.12.88-.13,1.32-.13,18.16,0,36.31-.02,54.47.03,1.11,0,2.21.56,3.32.86.12.08.23.17.35.25Zm-3.07,37.31v-33.58h-15.55c0,3.86,0,7.66,0,11.45,0,3.18-2.5,5.41-5.31,5.34-4.65-.12-9.31-.03-13.96-.04-2.68,0-4.74-2.06-4.75-4.73-.01-3.99,0-7.98,0-12.03h-15.56v33.59c2.1,0,4.15-.16,6.17.05,2.01.2,3.29-.64,4.64-1.97,4.62-4.57,10.32-5.97,16.58-4.88,4.36.76,8.16,2.8,11.02,6.33.23.28.76.46,1.15.46,5.15.03,10.31.02,15.59.02Zm13.36-26.44v36.06c2.27,0,4.47.04,6.66-.04.37-.01.92-.51,1.05-.89,1.56-4.72,6.8-7.45,11.98-5.71,3.26,1.1,5.24,3.38,6.3,6.63,1.85,0,3.7,0,5.55,0,1.7-.01,2.04-.36,2.04-2.1,0-3.5.08-7.01-.04-10.51-.04-1.16-.35-2.46-.96-3.43-4.09-6.47-8.29-12.87-12.49-19.27-.22-.34-.72-.7-1.09-.7-6.3-.04-12.6-.03-18.98-.03Zm-72.13,36.05c5.91,0,11.71.02,17.5-.04.36,0,.92-.5,1.05-.88,1.55-4.71,6.81-7.45,11.98-5.7,3.26,1.1,5.24,3.38,6.27,6.53h30.35v-4.71c-7.9,0-15.71-.07-23.51.04-2.28.03-4.31.02-5.37-2.42-.04-.09-.14-.14-.21-.21-3.53-3.59-7.77-4.96-12.76-4.34-3.39.42-6.49,1.73-8.38,4.43-1.58,2.25-3.29,2.67-5.69,2.53-2.49-.14-5-.03-7.5-.03h-3.73v4.81Zm23.99-31.33h14.34v-11.86h-14.34v11.86Zm60.09,33.71c0,2.63,2.04,4.78,4.51,4.84,2.64.06,4.85-2,5.07-4.63.21-2.54-2.19-4.94-4.86-4.98-2.72-.04-5.06,2.6-4.71,4.77Zm-61.28-.04c0,2.65,2.02,4.81,4.47,4.87,2.93.07,5.04-2.29,5.09-4.74.06-2.71-2.34-4.91-4.97-4.88-2.5.03-4.59,2.19-4.59,4.75Z"/>
      <path class="cls-1" d="m153.56,70.84c.18,0,.36,0,.54,0v13.22c-.28,0-.57,0-.85,0-.11-.21-.37-.47-.32-.63,1.31-4,.54-8.09.57-12.14,0-.15.03-.3.05-.45Z"/>
      <path class="cls-1" d="m0,82.86c.11.5.22,1.01.34,1.51-.11,0-.22,0-.34-.01,0-.5,0-1,0-1.5Z"/>
      <path class="cls-1" d="m69.08,17.94c.81-.72,1.63-1.45,2.44-2.17.17.21.51.43.49.62-.08.98-1.93,1.92-2.93,1.55Z"/>
      <path class="cls-1" d="m124.95,71.41c.62-.89,1.24-1.78,1.87-2.67,1.41.97-.55,1.58-.27,2.42-.53.08-1.06.16-1.6.25Z"/>
      <path class="cls-1" d="m29.2,126.42c.5-.9.99-1.8,1.49-2.7.16.09.44.17.46.28.1.66-1.26,2.32-1.95,2.42Z"/>
      <path class="cls-1" d="m28.83,130.64c-.6-.81-1.21-1.61-1.81-2.42.1-.08.21-.16.31-.23.1-.03.2-.06.3-.09.47.88,1.6,1.47,1.2,2.74Z"/>
      <path class="cls-1" d="m52.87,9c.99-.33,1.99-.65,2.98-.98-.51,1.11-2.22,1.67-2.98.98Z"/>
      <path class="cls-1" d="m61.76,85.81c-.66-.38-1.32-.76-1.98-1.13.47-.12,1.13-.48,1.37-.29.36.27.42.93.61,1.43Z"/>
      <path class="cls-1" d="m123.97,87.69c.25-.61.5-1.22.74-1.83,1.22.61.1,1.33.11,2-.28-.06-.57-.12-.85-.18Z"/>
      <path class="cls-1" d="m22.52,46.47c.5-.5,1-1,1.5-1.5-.03.49.12,1.13-.14,1.42-.21.24-.89.07-1.36.08Z"/>
      <path class="cls-1" d="m56.84,25.48c-.21-1.15.56-1.53,1.43-1.82.07,1.04-.2,1.81-1.43,1.82Z"/>
      <path class="cls-1" d="m61.87,21.23c.6-.3,1.2-.6,1.8-.9-.27.45-.48.95-.84,1.31-.09.09-.63-.26-.97-.41Z"/>
      <path class="cls-1" d="m33.34,39.04c.6-.3,1.2-.59,1.8-.89-.26.46-.48.96-.83,1.34-.07.08-.63-.29-.97-.45Z"/>
      <path class="cls-1" d="m33.7,102.99c-.03-.8-.05-1.61-.08-2.41,1.12.95,1.15,1.75.08,2.41Z"/>
      <path class="cls-1" d="m42.01,131.53c-.68.61-1.36,1.22-2.04,1.83-.06-1.44,1.16-1.44,2.04-1.83Z"/>
      <path class="cls-1" d="m63.1,150.11c.61.61,1.21,1.22,1.82,1.83-1.35.13-1.96-.48-1.82-1.83Z"/>
      <path class="cls-1" d="m139.96,104.2c-.4-.6-.8-1.2-1.2-1.81,1.22.06,1.69.61,1.2,1.81Z"/>
      <path class="cls-1" d="m72.45,13.76c.2-.7.4-1.4.61-2.1.71.81.46,1.69-.61,2.1Z"/>
      <path class="cls-1" d="m120.22,92.78c.6-.34,0-1.58,1.14-1.5.67,1.3-.06,1.53-1.14,1.5Z"/>
      <path class="cls-1" d="m78.67,88.58c-.69-.2-1.39-.39-2.08-.59.86-.4,1.74-.84,2.08.59Z"/>
      <path class="cls-1" d="m29.49,92.6c-.32-.33-.64-.66-.96-.99.26-.17.51-.35.77-.52.06.5.13,1.01.19,1.51Z"/>
      <path class="cls-1" d="m16.21,65.17c-.5-.23-.99-.46-1.49-.69.28-.24.55-.48.83-.72.22.47.44.94.66,1.41Z"/>
      <path class="cls-1" d="m56.77,81.38c-1.3-.28-.53-1.45-.91-2.12,1.54.17.48,1.46.91,2.12Z"/>
      <path class="cls-1" d="m57.05,68.39c.19-.39.38-.78.57-1.17.14.35.28.7.42,1.04l-1,.12Z"/>
      <path class="cls-1" d="m8.14,111.69l.9,1.8c-.97-.26-1.65-.68-.9-1.8Z"/>
      <path class="cls-1" d="m30.99,122.22c-.06-.52-.75-1.15.23-1.51.94.66.86,1.16-.23,1.51Z"/>
      <path class="cls-1" d="m149.89,119.54l-1.21-1.83c1.45-.09,1.2.96,1.21,1.83Z"/>
      <path class="cls-1" d="m146.58,114.44l-1.2-1.83c1.45-.08,1.2.96,1.2,1.83Z"/>
      <path class="cls-1" d="m75.13,36.91c-.51.51-1.01,1.02-1.52,1.53-.17-1.18.33-1.7,1.52-1.53Z"/>
      <path class="cls-1" d="m1.84,94.56c.17.71.34,1.41.52,2.12-.74-.57-1.17-1.21-.52-2.12Z"/>
      <path class="cls-1" d="m85.93,24.01c-.6.2-1.2.4-1.81.59.27-1.2.95-1.16,1.81-.59Z"/>
      <path class="cls-1" d="m118.39,95.19c.63-.31.03-1.59,1.17-1.51.05.85.09,1.68-1.17,1.51Z"/>
      <path class="cls-1" d="m122.32,90.07c.38-.51.76-1.01,1.14-1.52.03.82.15,1.69-1.14,1.52Z"/>
      <path class="cls-1" d="m144.21,102.35l1.22,1.83c-1.13-.12-1.29-.9-1.22-1.83Z"/>
      <path class="cls-1" d="m30.93,94.01c-.44-.43-.87-.85-1.31-1.28,1.25-.4,1.35.37,1.31,1.28Z"/>
      <path class="cls-1" d="m143.28,109.33c-.31-.49-.61-.98-.92-1.47q.92-.2.92,1.47Z"/>
      <path class="cls-1" d="m27.02,90.11l-1.2-.9c.93-.43,1.08-.32,1.2.9Z"/>
      <path class="cls-1" d="m145.34,98.78c-.23.66-.45,1.33-.68,1.99-.19-.8-.54-1.67.68-1.99Z"/>
      <path class="cls-1" d="m55.57,27.83c.19-.19.38-.38.57-.57.11.34.22.67.33,1.01-.3-.15-.6-.29-.9-.44Z"/>
      <path class="cls-1" d="m123.73,81.67c-.29-.29-.59-.59-.88-.88.32-.03.64-.06.96-.08l-.08.96Z"/>
      <path class="cls-1" d="m152.57,123.73c-.27-.41-.55-.81-.82-1.22.76.07,1.58.11.82,1.22Z"/>
      <path class="cls-1" d="m65.19,87.31l-1.26-.62c.72-.7.82-.65,1.26.62Z"/>
      <path class="cls-1" d="m148.73,82.55c0,.41-.01.81-.02,1.22-1.04-.42-.6-.82.02-1.22Z"/>
      <path class="cls-1" d="m57.67,82.88c-.23-.32-.46-.63-.69-.95.21-.13.42-.26.63-.4.02.45.04.89.06,1.34Z"/>
      <path class="cls-1" d="m17.71,66.07c-.3-.2-.6-.41-.9-.61.13-.17.27-.34.4-.5.16.37.33.74.49,1.12Z"/>
      <path class="cls-1" d="m151.46,95.48c.1-.4.2-.8.3-1.2.76.57.72.75-.3,1.2Z"/>
      <path class="cls-1" d="m33.7,99.38c-.12-.4-.25-.8-.37-1.19.29.21.58.42.87.63-.17.19-.34.38-.5.57Z"/>
      <path class="cls-1" d="m67.89,87.92c-.4-.1-.8-.2-1.2-.3.57-.76.75-.71,1.2.3Z"/>
      <path class="cls-1" d="m100.31,26.07c.19-.3.39-.61.58-.91.18.13.35.26.53.39-.37.17-.74.34-1.11.51Z"/>
      <path class="cls-1" d="m39.31,35.07l.67-.98c.15.16.29.33.44.49-.37.16-.74.32-1.11.48Z"/>
      <path class="cls-1" d="m8.46,54.32c.1-.4.2-.8.3-1.2.18.23.35.45.53.68-.28.17-.55.35-.83.52Z"/>
      <path class="cls-1" d="m3.02,99.05c.18.51.36,1.02.54,1.54-1.08-.2-.9-.84-.54-1.54Z"/>
      <path class="cls-1" d="m23.12,86.5c-.37-.41-.75-.82-1.12-1.24.98-.14,1.25.37,1.12,1.24Z"/>
      <path class="cls-1" d="m13.52,63.88c-.4-.1-.8-.2-1.2-.3.23-.18.45-.35.68-.53.17.28.35.55.52.83Z"/>
      <path class="cls-1" d="m63.37,61.19c.3-.17.61-.34.91-.51l-.54,1.04c-.12-.17-.25-.35-.37-.52Z"/>
      <path class="cls-1" d="m79.74,88.18c.18.23.41.41.38.48-.08.18-.28.3-.42.44-.11-.14-.3-.27-.31-.41,0-.14.18-.28.35-.52Z"/>
      <path class="cls-1" d="m39.68,133.64c-.3.41-.61.82-.91,1.22-.54-1.04.05-1.24.91-1.22Z"/>
      <path class="cls-1" d="m51.32,81.06c.12.4.24.8.37,1.2-.29-.21-.58-.42-.87-.63.17-.19.34-.38.5-.57Z"/>
      <path class="cls-1" d="m41.14,14.32c.3-.2.6-.39.9-.59l-.5,1.11c-.13-.17-.27-.35-.4-.52Z"/>
      <path class="cls-1" d="m148.43,85.55c0,.31-.01.61-.02.92-.19-.16-.38-.31-.57-.47.2-.15.4-.3.59-.45Z"/>
      <path class="cls-1" d="m57.96,66.63c.2-.3.4-.6.6-.9.71.9.01.87-.6.9Z"/>
      <path class="cls-1" d="m95.78,11.06l-.02.9c-.24-.11-.48-.22-.73-.33.25-.19.5-.38.75-.57Z"/>
      <path class="cls-1" d="m31.23,132.46c-.3-.2-.6-.4-.9-.6.93-.75.87,0,.9.6Z"/>
      <path class="cls-1" d="m18.34,126.69c.3.41.61.82.91,1.23-1,.1-.95-.57-.91-1.23Z"/>
      <path class="cls-1" d="m54.98,87.04c.3.3.6.59.91.89-.74.3-.83.22-.91-.89Z"/>
      <path class="cls-1" d="m61.88,6.3c.4-.03.79-.06,1.19-.08-.16.2-.36.6-.47.57-.26-.06-.48-.31-.72-.49Z"/>
      <path class="cls-1" d="m33.7,134.84c-.12-.19-.24-.38-.36-.57.27-.04.54-.07.82-.11-.15.23-.3.45-.45.68Z"/>
      <path class="cls-1" d="m13.87,121.3c.27.31.53.61.8.92-1.06-.14-1.1-.19-.8-.92Z"/>
      <path class="cls-1" d="m27.65,136.01c.3.3.6.6.9.9-.74.3-.83.21-.9-.9Z"/>
      <path class="cls-1" d="m152.05,92.47c.1-.3.2-.6.3-.9.17.18.33.35.5.53-.27.12-.53.25-.8.37Z"/>
      <path class="cls-1" d="m31.6,110.8c.1-.3.19-.6.29-.9l.5.52c-.26.13-.53.25-.79.38Z"/>
      <path class="cls-1" d="m150.86,97.58c.1-.3.19-.6.29-.9.17.17.33.35.5.52-.26.13-.53.25-.79.38Z"/>
      <path class="cls-1" d="m118.96,78.59c-.3-.1-.6-.19-.9-.29.17-.17.35-.33.52-.5.13.26.25.53.38.79Z"/>
      <path class="cls-1" d="m75.1,87.92c-.3-.11-.6-.21-.9-.32.18-.16.36-.32.54-.48.12.27.24.53.37.8Z"/>
      <path class="cls-1" d="m64.57,20.04l.91-.51c-.02.68-.16,1.16-.91.51Z"/>
      <path class="cls-1" d="m114.18,92.78c-.2.3-.4.6-.59.9-.74-.92-.02-.87.59-.9Z"/>
      <path class="cls-1" d="m101.24,44.95c-.3-.1-.6-.2-.9-.29l.53-.5c.13.27.25.53.38.8Z"/>
      <path class="cls-1" d="m18.61,49.47c.3-.2.6-.4.9-.6-.03.61.03,1.35-.9.6Z"/>
      <path class="cls-1" d="m7.27,57.92c.1-.3.19-.6.29-.9.17.17.33.35.5.52-.26.13-.53.25-.79.38Z"/>
      <path class="cls-1" d="m15.63,123.69c.38.31.75.62,1.13.94-.67.04-1.25-.02-1.13-.94Z"/>
      <path class="cls-1" d="m32.24,109c.08-.3.17-.6.25-.9.16.19.33.38.49.57-.25.11-.5.22-.74.33Z"/>
      <path class="cls-1" d="m67.85,11.96c-.1.3-.21.6-.31.9-.15-.13-.3-.27-.44-.4.25-.17.5-.33.75-.5Z"/>
      <path class="cls-1" d="m114.75,96.13c.3,0,.6,0,.9,0-.17.17-.35.34-.52.51l-.38-.51Z"/>
      <path class="cls-1" d="m63.7,15c-.3.1-.6.19-.91.29.3-.1.6-.19.91-.29Z"/>
      <path class="cls-1" d="m29.14,137.29c.31.28.62.56.94.84-.31-.28-.62-.56-.94-.84Z"/>
      <path class="cls-1" d="m115.3,91.27c-.28.31-.56.62-.84.94.28-.31.56-.62.84-.94Z"/>
      <path class="cls-1" d="m67.59,5.41c.18.28.37.56.55.84-.18-.28-.37-.56-.55-.84Z"/>
      <path class="cls-1" d="m25.84,134.51c.31.3.62.61.93.91-.31-.3-.62-.61-.93-.91Z"/>
      <path class="cls-1" d="m118.09,87.68l-.91.94c.3-.31.61-.63.91-.94Z"/>
      <path class="cls-1" d="m119.21,86.16c-.28.31-.56.63-.84.94.28-.31.56-.63.84-.94Z"/>
      <path class="cls-1" d="m147.78,106.86l.07-.56c.16.22.31.43.47.65-.18-.03-.36-.06-.53-.09Z"/>
      <path class="cls-1" d="m112.59,94.88c-.17.2-.33.41-.5.61.17-.2.33-.41.5-.61Z"/>
      <path class="cls-1" d="m5,104.59c.15.36.29.73.44,1.09-.15-.36-.29-.73-.44-1.09Z"/>
      <path class="cls-1" d="m32.44,139.13c.1,0,.2-.02.31-.02.05.23.1.46.15.69-.09.02-.17.04-.26.06-.07-.24-.13-.49-.2-.73Z"/>
      <path class="cls-1" d="m7.05,109.35c.16.38.33.76.49,1.14-.16-.38-.33-.76-.49-1.14Z"/>
      <path class="cls-1" d="m80.27,27.6c-.16.36-.32.72-.47,1.08.16-.36.31-.72.47-1.08Z"/>
      <path class="cls-1" d="m4.1,102.19c.14.36.28.73.42,1.09-.14-.36-.28-.73-.42-1.09Z"/>
      <path class="cls-1" d="m11.16,117.09c.16.21.33.41.49.62-.16-.21-.33-.41-.49-.62Z"/>
      <path class="cls-1" d="m116.26,82.84c.38.16.76.32,1.14.48-.38-.16-.76-.32-1.14-.48Z"/>
      <path class="cls-1" d="m53.81,85.85l.59.61c-.2-.2-.39-.4-.59-.61Z"/>
      <path class="cls-1" d="m112.95,81.13c.2.17.41.33.61.5-.2-.17-.41-.33-.61-.5Z"/>
      <path class="cls-1" d="m87.72,5.7c.2,0,.4.01.6.02-.1.14-.21.28-.31.42-.1-.15-.2-.29-.29-.44Z"/>
      <path class="cls-1" d="m111.76,14.03c.2.1.4.2.6.3-.2-.1-.4-.2-.6-.3Z"/>
      <path class="cls-1" d="m65.49,5.71c.2,0,.4,0,.6-.01-.1.14-.2.29-.29.43-.1-.14-.2-.28-.31-.42Z"/>
      <path class="cls-1" d="m148.33,67.54c.01.2.02.4.03.6-.15-.1-.3-.19-.45-.29.14-.1.28-.21.42-.31Z"/>
      <path class="cls-1" d="m85.61,5.38l.61.23-.61-.23Z"/>
      <path class="cls-1" d="m95.77,12.86c0,.2,0,.4,0,.6-.15-.1-.29-.2-.44-.3.14-.1.29-.2.43-.3Z"/>
      <path class="cls-1" d="m10.26,115.59c.11.2.21.4.32.6-.11-.2-.21-.4-.32-.6Z"/>
      <path class="cls-1" d="m148.07,87.67c-.08.2-.16.41-.23.61.08-.2.16-.41.23-.61Z"/>
      <path class="cls-1" d="m82.91,5.08c.2,0,.4.02.6.02-.1.14-.21.28-.31.42-.1-.15-.19-.3-.29-.45Z"/>
      <path class="cls-1" d="m63.08,86.4c-.21-.08-.41-.15-.62-.23.21.08.41.15.62.23Z"/>
      <path class="cls-1" d="m66.09,87.61c-.21-.08-.42-.16-.63-.23.21.08.42.16.63.23Z"/>
      <path class="cls-1" d="m56.18,88.04l.62.22c-.21-.07-.42-.15-.62-.22Z"/>
      <path class="cls-1" d="m55.57,79.19c-.08-.01-.15-.03-.23-.04.07-.07.15-.15.22-.22,0,.09,0,.17,0,.26Z"/>
      <path class="cls-1" d="m30.94,118.26c-.08-.08-.16-.16-.25-.24.08.08.16.16.25.24Z"/>
      <path class="cls-1" d="m52.88,84.15c.07.07.15.14.22.21-.07-.07-.15-.14-.22-.21Z"/>
      <path class="cls-1" d="m55.84,8.03c.11-.07.22-.15.33-.22-.11.07-.22.15-.33.22Z"/>
      <path class="cls-1" d="m21.92,84.99c-.08-.11-.16-.21-.24-.32.08.11.16.21.24.32Z"/>
      <path class="cls-1" d="m113.49,93.98c-.08.08-.16.15-.24.23.08-.08.16-.15.24-.23Z"/>
      <path class="cls-1" d="m105.14,94.82c-.12-.08-.23-.17-.35-.25.12.08.23.17.35.25Z"/>
      <path class="cls-1" d="m4.47,77.47c.1.2.21.4.31.6-.1-.2-.21-.4-.31-.6Z"/>
      <path class="cls-1" d="m28.83,99.71c-.08-.11-.16-.21-.24-.32.08.11.16.21.24.32Z"/>
      <path class="cls-1" d="m27.33,128c-.1.08-.21.16-.31.23.1-.08.21-.16.31-.23Z"/>
      <path class="cls-1" d="m129.79,126.12c-1.95,0-3.91-.12-5.85.03-2.11.16-3.91-1.79-3.81-3.72.14-2.74.06-5.5.03-8.25-.02-2.08,1.07-3.49,3.05-3.61,2.75-.17,5.54.05,8.3.29.68.06,1.48.72,1.9,1.32,1.78,2.56,3.36,5.26,5.17,7.8,1.01,1.42,1.12,2.87.47,4.3-.68,1.49-2.11,1.9-3.7,1.86-1.85-.05-3.7-.01-5.55-.01Zm-4.78-4.83h8.67c-1.23-1.91-2.39-3.74-3.58-5.55-.13-.2-.43-.41-.65-.41-1.47-.04-2.95-.02-4.43-.02v5.98Z"/>
    </g>
  </g>
</svg>