<?xml version="1.0" encoding="UTF-8"?>
<svg id="Layer_2" data-name="Layer 2" xmlns="http://www.w3.org/2000/svg" viewBox="0 0 149.28 149.17">
  <defs>
    <style>
      .cls-1 {
        fill: #fff;
      }
    </style>
  </defs>
  <g id="Layer_1-2" data-name="Layer 1">
    <g>
      <path class="cls-1" d="m101.9,136.24c-.32,8.03-6.54,12.35-11.72,12.8-8.39.73-13.66-5.52-14.36-12.84h-39.97c-.14,4.34-2.07,7.87-5.47,10.51-2.89,2.25-6.39,2.86-9.85,2.24-5.61-1-10.31-5.53-10.62-12.8-2.34,0-4.7,0-7.07,0-2.55,0-2.85-.3-2.85-2.8,0-7,0-14,0-21.01,0-2.17,0-2.24,2.16-2.21,1.22.01,1.45-.49,1.44-1.58-.03-9.23-.03-18.46,0-27.7,0-2.34,1.18-3.43,3.55-3.44,7.11-.01,14.21-.04,21.32,0,3.03.02,6.07.3,9.1.29,10.09-.06,20.18-.18,30.27-.32,1.58-.02,2.88.33,3.96,1.58.32.37,1.05.54,1.6.54,4.67.04,9.34.02,14,.03,5.28.01,9.35,2.21,12.13,6.74,3.08,5.03,6.13,10.08,9.3,15.06,1.51,2.36,2.14,4.92,2.17,7.63.07,6.07-.13,12.14.07,18.2.18,5.51-3.46,9.36-9.16,9.07Zm-98.43-5.59v1.82h6.96c.25-.63.48-1.23.72-1.82-.09-.08-.18-.17-.26-.25-2.38,0-4.77,0-7.15,0-.09.08-.18.16-.27.25Zm31.4-.24c-.01.2-.03.4-.04.6.15.57.3,1.13.46,1.71h33.45v-2.07c-.09-.08-.18-.17-.26-.25-11.2,0-22.4,0-33.6,0Zm24.95-49.26c-.02.52-.05,1.03-.05,1.55,0,3.32.08,6.64-.06,9.95-.03.75-.67,1.74-1.32,2.11-.71.4-1.59.07-2.13-.91-.5-.91-1.34-1.64-2.11-2.53-.8.9-1.5,1.85-2.38,2.6-.54.46-1.44.98-1.99.82-.51-.15-1.03-1.15-1.08-1.8-.14-1.96-.05-3.94-.05-5.9,0-2.04,0-4.09,0-6.1h-8.98v29.01h29.03v-29.06h-8.64c-.08.09-.17.18-.25.26Zm12.73,51.38h3.86c.27-.56.55-1.04.76-1.54,1.73-4.15,4.91-6.84,9.22-7.4,6.71-.88,12.03,1.51,14.8,8.41.13.32.43.75.71.8,2.98.49,6.22-1.53,5.36-4.95-.73,0-1.51.1-2.26-.03-.88-.15-1.78-.36-2.56-.77-2.16-1.12-2.21-8.19-.27-9.17.83-.42,1.75-.85,2.65-.89,2.78-.13,2.78-.05,2.78-2.88,0-1.56,0-3.11,0-4.67.02-2.55-.7-4.85-2.08-7.01-2.85-4.47-5.66-8.95-8.38-13.5-1.95-3.27-4.49-5.76-8.44-5.89-5.38-.18-10.78-.02-16.16,0-.08.1-.16.2-.24.3-.01,3.27-.04,6.53-.04,9.8,0,13.12.03,26.24.04,39.36,0,.08.02.16.02.24.08-.07.16-.14.25-.21Zm-3.79-18.97H3.49v13.37c3.31,0,6.56.02,9.81-.02.35,0,.76-.25,1.03-.5,4.23-3.97,12.26-3.93,16.5-.33.63.53,1.66.81,2.51.82,11.35.05,22.71.04,34.06.03.45,0,.9-.04,1.36-.06v-13.31Zm-61.67-3.6h28.99v-29.03h-8.95c0,.72,0,1.34,0,1.95,0,3.32.07,6.64-.06,9.96-.02.67-.61,1.58-1.2,1.9-.6.32-1.49.35-2.05-.69-.56-1.03-1.55-1.83-2.36-2.74-.79.95-1.38,1.88-2.19,2.56-.58.49-1.48.94-2.18.86-.4-.04-.96-1.15-.98-1.8-.1-3.16-.05-6.33-.05-9.49,0-.85,0-1.71,0-2.57H7.09v29.09Zm15.6,16.95c-4.77-.71-9.43,4.68-9.34,8.83.13,6.11,3.93,9.9,10.37,9.83,4.39-.05,8.53-4.11,8.66-9.24.13-5.18-4.41-9.92-9.68-9.42Zm66.26,0c-5.59-.52-9.59,4.65-9.57,9.36.02,4.21,3.49,9.85,10.44,9.37,3.99-.28,8.95-4.1,8.58-10.25-.25-4.15-4.3-8.91-9.45-8.47Zm-36.84-46.04v7.44c1.52-1.86,2.86-1.47,4.15-.04v-7.4h-4.15Zm-32.56,7.34c1.36-1.75,2.67-1.32,4.02-.05v-7.23h-4.02v7.28Zm84.77,35.82h2.99v-3.58h-2.99v3.58Z"/>
      <path class="cls-1" d="m64.38,65.9c-4.33,3.35-8.96,5.97-14.4,7.25-4.13.97-8.27,1.45-12.41,1.06-3.15-.3-6.3-1.25-9.29-2.35-5.61-2.05-10.35-5.55-14.33-9.97-3.19-3.54-5.43-7.68-7.16-12.14-.81-2.09-.98-4.26-1.51-6.37-.57-2.28-.21-4.59-.29-6.88-.23-7.06,2.32-13.29,6.06-19.07,3.67-5.67,8.74-9.83,14.84-12.71,1.39-.66,2.95-.99,4.3-1.71,1.6-.86,3.32-1,5.04-1.19,1.83-.21,3.68-.24,5.52-.34.16,0,.32.03.47,0,3.9-.85,7.57.52,11.08,1.69,3.61,1.2,7.15,2.98,10.28,5.14,7.21,5,11.75,11.97,14.08,20.49.89,3.25.92,6.5,1.12,9.76.09,1.49-.42,3-.54,4.51-.51,6.23-3.21,11.6-6.76,16.54-1.61,2.23-3.8,4.05-5.73,6.05-.12.09-.24.17-.36.26ZM8.41,37.66c-.24,18.44,14.67,32.67,31.39,33.12,20.05.53,34.45-14.61,34.53-33.02.08-17.71-14.14-33.97-35.49-32.87-15.59.8-30.61,14.31-30.43,32.77Z"/>
      <path class="cls-1" d="m128.66,0c1.08.12,1.79.2,2.76.31,1.39.51,3.15,1.04,4.81,1.8,6.74,3.09,10.87,8.32,12.58,15.53,1.45,6.15-.67,11.48-3.49,16.74-4.64,8.65-10.95,16.15-16.45,24.2-1.05,1.53-2.39,1.47-3.5-.07-4.05-5.62-8.31-11.11-12.11-16.9-3.23-4.92-6.48-9.95-7.78-15.83-.45-2.02-.53-4.24-.2-6.28,1.04-6.52,2.54-9.36,6.72-13.44,2.15-2.09,4.75-3.49,7.53-4.64,2.51-1.05,5.09-1.2,7.73-1.22.57,0,1.13-.16,1.4-.2Zm-1.15,3.63c-4.78-.08-8.39,1.28-11.62,3.72-4.68,3.54-7.12,8.36-7.52,14.14-.27,3.8,1.38,7.2,3.11,10.42,4.25,7.92,9.7,15.04,15.07,22.21.54.72.68.82,1.22.01,1.13-1.68,2.4-3.26,3.6-4.9,4.6-6.33,9.29-12.6,12.63-19.74,1.59-3.4,2.43-6.91,1.66-10.58-1.94-9.23-9.43-15.36-18.14-15.29Z"/>
      <path class="cls-1" d="m116.27,59.98c1.14,1.3,2,2.29,2.71,3.1-1.33,1.78-2.59,3.5-3.9,5.17-.19.25-.75.45-1.01.35-1.01-.38-1.97-.9-3.25-1.51,1.88-2.46,3.59-4.69,5.45-7.11Z"/>
      <path class="cls-1" d="m108.95,140.75c2.34-.17,4.48-.29,6.61-.48,1.07-.1,1.43.42,1.49,1.38.18,2.51.13,2.56-2.49,2.69-1.42.07-2.84.18-4.26.31-.98.09-1.45-.26-1.37-1.3.06-.86.01-1.74.01-2.6Z"/>
      <path class="cls-1" d="m126.9,96.65c-.67.91-1.42,1.93-2.31,3.14-2.17-1.61-4.22-3.14-6.54-4.87.86-.97,1.61-1.9,2.46-2.71.17-.16.87.05,1.17.29,1.71,1.31,3.38,2.69,5.2,4.15Z"/>
      <path class="cls-1" d="m115,91.62c-1.44-2.43-2.82-4.75-4.24-7.14.38-.22.65-.39.93-.52,2.69-1.33,2.66-1.31,4.13,1.35.58,1.06,1.29,2.05,2.01,3.02.45.61.35,1.03-.22,1.43-.81.57-1.62,1.15-2.61,1.86Z"/>
      <path class="cls-1" d="m139.04,121.07c.99-.09,2.08-.19,3.21-.29.98,1.73.82,4.85-.52,8.7-1.23-.46-2.47-.91-3.53-1.3.28-2.37.55-4.65.84-7.11Z"/>
      <path class="cls-1" d="m133.49,139.57c-.35-.44-.46-.55-.53-.68-.53-.91-1.47-1.85-1.43-2.74.03-.68,1.34-1.28,2.03-1.96.94-.91,1.84-1.87,2.86-2.91.92.59,1.86,1.11,2.69,1.77.2.16.16.99-.06,1.21-1.79,1.78-3.65,3.5-5.56,5.31Z"/>
      <path class="cls-1" d="m138.53,108.62c1.17,2.65,2.29,5.16,3.33,7.53-.32.36-.35.42-.39.43q-3.41.97-4.79-2.29c-.39-.92-.73-1.89-1.26-2.72-.48-.75-.25-1.06.39-1.4.83-.44,1.64-.93,2.72-1.54Z"/>
      <path class="cls-1" d="m132.9,107.47c-1.75-1.89-3.37-3.65-5.08-5.5-.06.17-.05.07,0,.01,3.02-4.01,2.66-2.97,6.18.75,2.33,2.46,2.02,2.98-1.1,4.73Z"/>
      <path class="cls-1" d="m129.44,141.37c-2.36.7-4.59,1.41-6.84,2-.9.24-1.64,0-1.53-1.25.04-.48-.34-1.01-.24-1.45.11-.48.48-1.13.88-1.26,1.74-.58,3.53-1.04,5.33-1.45.36-.08,1.04.14,1.19.43.48.89.78,1.87,1.21,2.97Z"/>
      <path class="cls-1" d="m113.29,79.3c-.99.21-2.2.47-3.59.77-.67-2.98-.61-5.77-.13-8.62,1.39.31,2.51.55,3.72.82v7.03Z"/>
      <path class="cls-1" d="m64.38,65.9c.12-.09.24-.17.36-.26-.12.09-.24.17-.36.26Z"/>
      <path class="cls-1" d="m34.88,130.4c-.01.2-.03.4-.04.6.01-.2.03-.4.04-.6Z"/>
      <path class="cls-1" d="m11.15,130.65l-.26-.25.26.25Z"/>
      <path class="cls-1" d="m3.74,130.4c-.09.08-.18.16-.27.25.09-.08.18-.16.27-.25Z"/>
      <path class="cls-1" d="m68.74,130.65c-.09-.08-.18-.17-.26-.25.09.08.18.17.26.25Z"/>
      <path class="cls-1" d="m72.53,83.03c-.08.1-.16.2-.24.3.08-.1.16-.2.24-.3Z"/>
      <path class="cls-1" d="m72.29,132.5c.09-.01.18,0,.27.03-.08.07-.16.14-.25.21,0-.08-.02-.16-.02-.24Z"/>
      <path class="cls-1" d="m60.08,80.88c-.08.09-.17.18-.25.26.08-.09.17-.18.25-.26Z"/>
      <path class="cls-1" d="m89.79,109.03c-4.05,0-8.09,0-12.14,0-2.02,0-2.36-.35-2.36-2.35,0-6.12,0-12.24,0-18.36,0-1.94.44-2.38,2.34-2.39,2.7,0,5.41.18,8.09-.04,4.29-.36,7.11,1.45,9.21,5.09,2.7,4.68,5.67,9.2,8.51,13.8.29.47.59.96.77,1.48.56,1.67-.2,2.77-1.97,2.78-4.15.03-8.3,0-12.45,0Zm-10.98-19.69v16.17h21.07c-3.04-4.85-6.03-9.56-8.95-14.31-.68-1.1-1.58-1.8-2.79-1.83-3.09-.09-6.19-.03-9.33-.03Z"/>
      <path class="cls-1" d="m79.48,115.77c-.76-.07-1.64.07-2.23-.28-.5-.29-1.04-1.29-.88-1.72.23-.61,1.02-1.25,1.68-1.42.98-.24,2.05-.09,3.09-.06,1.09.03,1.99.21,2.01,1.68.02,1.47-.84,1.69-1.95,1.73-.57.02-1.14,0-1.71,0,0,.02,0,.04,0,.06Z"/>
      <path class="cls-1" d="m22.93,130.33c3.18-.44,5.97,2.71,6.03,5.82.06,2.84-2.53,5.86-5.92,6.07-3.65.22-6.33-3.48-6.25-6.09.1-3.49,2.45-5.8,6.14-5.8Zm-.27,3.42c-1.46,0-2.43,1.02-2.42,2.51.01,1.52,1.06,2.43,2.66,2.49,1.81.07,2.48-1.35,2.61-2.57.15-1.46-1.07-2.43-2.85-2.42Z"/>
      <path class="cls-1" d="m88.87,130.33c3.82-.33,6.1,3,6.08,5.56-.04,3.94-2.41,6.22-6.37,6.31-2.63.06-5.69-2.42-5.74-5.91-.05-2.87,2.29-6.39,6.03-5.96Zm.09,3.42c-1.7,0-2.76.97-2.73,2.51.03,1.45,1.13,2.48,2.67,2.47,1.67,0,2.62-.96,2.62-2.65,0-1.44-.98-2.33-2.56-2.33Z"/>
      <path class="cls-1" d="m41.1,65.58c-15.5-.11-27.71-12.55-27.62-27.97.09-15.14,11.51-26.34,24.88-27.43,19.44-1.58,30.15,13.46,30.75,25.9.82,17.22-13,29.62-28.01,29.5Zm.02-3.42c13.52.06,24.02-10.79,24.56-23.15.65-15.04-11.41-24.7-22.17-25.46-16.95-1.21-26.69,12.11-26.64,24.21.06,13.14,10.55,24.37,24.25,24.41Z"/>
      <path class="cls-1" d="m120.16,13.64c-.11-3.65,3.15-6.98,6.9-6.9,3.98.08,7.1,3.09,7.1,7.01,0,3.77-3.27,7.01-7.05,7.03-3.53.01-7.12-3.18-6.96-7.13Zm10.59.17c.02-2.02-1.5-3.59-3.49-3.63-2.13-.04-3.67,1.45-3.67,3.56,0,1.89,1.56,3.56,3.35,3.6,1.96.04,3.79-1.66,3.81-3.52Z"/>
      <path class="cls-1" d="m43.13,28.17c0,.83-.02,1.66,0,2.49.04,1.45-.37,2.91,1.47,3.9,1.12.6,1.38,2.19,1.15,3.6-.2,1.23.2,2.16,1.18,2.95.84.68,1.53,1.54,2.32,2.29.79.75.85,1.55.06,2.25-.7.62-1.52,1.09-2.37.13-.38-.43-.85-.77-1.2-1.22-1.34-1.75-2.94-2.68-5.28-2.36-1.36.19-3.31-1.75-3.72-3.33-.44-1.69.39-4.05,2.02-4.93.89-.48.95-1.04.95-1.83-.02-2.75-.02-5.5,0-8.24,0-1.07.07-2.18,1.55-2.16,1.45.02,1.87.99,1.87,2.26,0,1.4,0,2.8,0,4.2Zm-.1,9.64c-.78-.55-1.18-1.02-1.67-1.15-.84-.22-1.26.41-1.16,1.12.05.38.64.99.95.97.53-.04,1.04-.49,1.88-.95Z"/>
      <path class="cls-1" d="m42.86,18.23h-3.27v-2.69h3.27v2.69Z"/>
      <path class="cls-1" d="m63.46,36.12v3.22h-2.66v-3.22h2.66Z"/>
      <path class="cls-1" d="m39.6,59.91v-2.67h3.29v2.67h-3.29Z"/>
      <path class="cls-1" d="m21.71,39.39h-2.64v-2.99h2.64v2.99Z"/>
    </g>
  </g>
</svg>