<?xml version="1.0" encoding="UTF-8"?>
<svg id="Layer_2" data-name="Layer 2" xmlns="http://www.w3.org/2000/svg" viewBox="0 0 131.6 131.62">
  <defs>
    <style>
      .cls-1 {
        fill: #fff;
      }
    </style>
  </defs>
  <g id="Layer_1-2" data-name="Layer 1">
    <g>
      <path class="cls-1" d="m28.67,38.5c.09,1.59,1.53,2.48,3.04,1.88,1.32-.52,3.53.49,4.15,1.81.33.69.81,1.32,1.24,1.96.96,1.47,1.15,2.81.6,4.67,1.48,0,2.93-.02,4.37,0,2.09.03,3.8,1.04,4.27,2.7.29,1.02.36,2.13.37,3.2.03,9.11-.01,18.21.03,27.32.02,3-2.15,5.09-4.94,5.02-5.34-.14-10.69-.03-16.04-.03-.04,0-.07.03-.18.09v4.11h6.22v4.21H14.96v-4.15h6.23v-4.27c-1.85,0-3.69,0-5.53,0-3.8,0-7.6,0-11.4,0-2.39,0-4.21-1.79-4.21-4.16,0-9.99.05-19.98-.04-29.97-.02-2.45,1.97-3.96,4.1-4.05,1.59-.07,3.18-.01,4.9-.01-1.52-2.75.57-4.52,1.69-6.53.82-1.46,1.87-2.32,3.82-1.78.88.24,2.09-.32,3.01-.79.31-.16.2-1.16.28-1.78.26-.18.53-.37.79-.55.8-.4,1.59-1.1,2.41-1.14,1.93-.09,3.89,0,5.8.29.62.1,1.11,1.08,1.66,1.66l.21.28Zm-19.09,19.35c-.07-.09-.14-.18-.22-.27-1.21-1.32-.36-2.94-.62-4.42h-4.37v21.04h38.01v-21.04h-4.68c.6,1.77.25,3.3-.72,4.74-.57.86-1.12,1.72-1.68,2.59-.25.18-.49.36-.74.55-.84.92-1.79.92-2.89.47-1.05-.43-2.81.4-2.97,1.36-.29,1.7-1.88,3.25-3.76,2.97-1.12-.16-2.3-.14-3.43,0-1.83.23-3.16-1.17-3.6-2.67-.49-1.7-1.55-2.11-3.25-1.55-.56.18-1.4.09-1.88-.23-.89-.6-1.61-1.45-2.41-2.2-.07-.09-.14-.18-.22-.27-.19-.35-.39-.7-.58-1.05Zm32.86,20.76H4.36v4.09h38.08v-4.09Zm-21.08-38.03c.06.16.11.31.17.47-.09.42-.03,1.06-.28,1.22-2.02,1.31-3.73,3.41-6.63,2.65-.4-.1-1.05.49-1.46.89-.1.1.2.8.47,1.06,1.3,1.23,1.49,6.66.23,7.9-.03.03-.06.08-.1.09-.74.15-.89.79-.54,1.19.41.48.76,1.22,1.78,1,.76-.16,1.65.03,2.41.28.81.27,1.53.8,2.29,1.2.91.48,1.92.81,1.89,2.18,0,.27.65.77,1.03.8.61.04,1.71-.09,1.79-.37.53-1.86,2.04-2.56,3.53-3.27.94-.45,2.1-1.22,2.91-.99,1.68.49,2.12-.36,2.64-1.51-2.34-1.97-1.7-4.49-1.37-6.93.05-.39.4-.73.58-1.1.25-.51.47-1.03.7-1.54-.66-.22-.87-1.47-1.99-.76-.41.26-1.17.2-1.68.02-.76-.27-1.43-.78-2.14-1.17-1.21-.67-2.75-1.01-2.66-2.91,0-.19-.45-.59-.7-.59-.95,0-1.91.12-2.86.2Z"/>
      <path class="cls-1" d="m82.75,63.64v4.25h-12.63v44.57h12.58v4.23c-.37.02-.75.05-1.13.05-4.38,0-8.75,0-13.13,0-2.02,0-2.64-.63-2.64-2.68,0-14.85,0-29.71,0-44.56v-1.54h-12.66v-4.25h12.66v-1.52c0-14.81,0-29.62,0-44.43,0-2.36.54-2.89,2.91-2.89,4.64,0,9.27,0,13.98,0v4.2h-12.58v44.57h12.62Z"/>
      <path class="cls-1" d="m110.21,33.97c-5.74,0-11.49,0-17.23,0-2.12,0-3.82-1.72-3.82-3.86,0-8.62-.01-17.24,0-25.86,0-2.65,1.59-4.22,4.29-4.23,8.09-.01,16.17,0,24.26,0,2.96,0,5.92-.05,8.88.01,3.39.07,4.96,1.54,4.98,5.03.05,7.96.03,15.91,0,23.87,0,2.08-.58,3.92-2.77,4.76-.39.15-.81.27-1.22.27-5.79.02-11.58.01-17.37.01Zm17.05-4.27V4.34h-33.79v25.36h33.79Z"/>
      <path class="cls-1" d="m110.05,48.83c5.57,0,11.14-.04,16.71.03,1.85.02,3.64.48,4.33,2.56.25.76.47,1.58.47,2.37.03,8-.01,16,.04,24.01.02,2.97-2.07,5.08-5.06,5.04-10.39-.12-20.77-.04-31.16-.07-.69,0-1.38-.3-2.08-.45-.12-.03-.25-.06-.38-.05-2.24.17-3.77-1.29-3.77-3.63,0-8.53.08-17.07-.05-25.6-.04-2.75,2.25-4.19,4.24-4.19,5.57-.02,11.14,0,16.71,0Zm17.21,29.68v-25.36h-33.79v25.36h33.79Z"/>
      <path class="cls-1" d="m110.17,131.59c-5.65,0-11.31,0-16.96,0-2.19,0-4.05-1.85-4.06-4.04,0-8.48-.01-16.96,0-25.45,0-2.73,1.73-4.46,4.44-4.46,11.04,0,22.08-.02,33.13.03.91,0,1.9.23,2.71.65,1.55.8,2.13,2.32,2.14,3.97.03,8.22.02,16.43.01,24.65,0,2.77-2.16,4.73-4.71,4.68-5.56-.1-11.13-.03-16.7-.03h0Zm17.09-4.27v-25.36h-33.79v25.36h33.79Z"/>
      <path class="cls-1" d="m18.59,37.4c-.26.18-.53.37-.79.55.26-.18.53-.37.79-.55Z"/>
      <path class="cls-1" d="m28.67,38.5l-.21-.28.21.28Z"/>
      <path class="cls-1" d="m35.3,60.49c-.25.18-.49.36-.74.55.25-.18.49-.36.74-.55Z"/>
      <path class="cls-1" d="m9.58,57.86c-.07-.09-.14-.18-.22-.27.07.09.14.18.22.27Z"/>
      <path class="cls-1" d="m10.38,59.18c-.07-.09-.14-.18-.22-.27.07.09.14.18.22.27Z"/>
      <path class="cls-1" d="m17.01,50.85c-.05-3.52,2.66-6.24,5.92-6.2,4.33.05,6.68,2.51,6.71,6.41.03,3.58-2.61,5.93-6.12,6.26-3.47.32-6.82-2.98-6.51-6.46Zm6.15-2.02c-1.13.03-1.94.96-1.9,2.19.03,1.21.93,2.09,2.06,2.04,1.06-.05,2.23-1.22,2.18-2.19-.05-.99-1.28-2.07-2.33-2.04Z"/>
      <path class="cls-1" d="m119.84,12.55c-3.73,3.69-7.58,7.52-11.45,11.34-1.22,1.2-2.55,1.17-3.78-.04-1.38-1.36-2.75-2.72-4.08-4.04.99-1.13,1.9-2.18,2.93-3.36.84.9,1.52,1.54,2.08,2.26.73.94,1.25.72,1.99-.04,3.08-3.16,6.22-6.27,9.4-9.46.95,1.09,1.87,2.14,2.91,3.34Z"/>
      <path class="cls-1" d="m116.82,57.96c1.14,1.14,2.1,2.1,3.17,3.17-2.63,2.61-5.27,5.27-7.94,7.89-1.37,1.35-2.74,2.72-4.22,3.95-1.04.86-2.15.71-3.1-.22-1.39-1.36-2.75-2.75-4.09-4.09.99-.99,1.98-1.97,2.93-2.92.85.88,1.79,1.84,2.71,2.78,3.6-3.61,7.05-7.06,10.53-10.56Z"/>
      <path class="cls-1" d="m116.88,106.89c1.05,1.07,2,2.04,3.05,3.1-2.83,2.82-5.74,5.7-8.64,8.59-.97.97-1.91,1.96-2.89,2.91-1.23,1.19-2.55,1.17-3.78-.03-1.39-1.35-2.77-2.71-4.1-4.02,1.01-1.16,1.93-2.21,2.95-3.38.84.9,1.52,1.54,2.08,2.26.73.94,1.25.71,1.99-.04,3.09-3.16,6.23-6.26,9.35-9.4Z"/>
    </g>
  </g>
</svg>