<?xml version="1.0" standalone="no"?>
<!DOCTYPE svg PUBLIC "-//W3C//DTD SVG 20010904//EN"
 "http://www.w3.org/TR/2001/REC-SVG-20010904/DTD/svg10.dtd">
<svg version="1.0" xmlns="http://www.w3.org/2000/svg"
 width="715.000000pt" height="715.000000pt" viewBox="0 0 715.000000 715.000000"
 preserveAspectRatio="xMidYMid meet">
<metadata>
Created by potrace 1.14, written by Peter Selinger 2001-2017
</metadata>
<g transform="translate(0.000000,715.000000) scale(0.100000,-0.100000)"
fill="#000000" stroke="none">
<path d="M435 4888 c-154 -51 -201 -258 -86 -374 72 -73 28 -69 796 -71 519
-1 697 -5 720 -14 17 -7 36 -13 43 -15 19 -4 82 -75 97 -109 37 -87 20 -187
-44 -251 -63 -63 -78 -67 -270 -72 -189 -4 -216 -10 -277 -64 -124 -109 -89
-313 64 -381 43 -18 69 -20 391 -21 388 -2 398 -4 463 -74 44 -48 61 -92 61
-156 -1 -60 -20 -109 -60 -151 -62 -67 -96 -77 -278 -79 -140 -2 -170 -11
-228 -65 -53 -48 -70 -91 -70 -176 0 -66 13 -97 62 -150 42 -46 92 -67 171
-70 36 -2 67 -4 70 -5 3 -1 10 -1 15 0 27 6 137 4 142 -3 2 -4 9 -5 14 -1 17
10 59 12 65 2 5 -8 -29 -112 -58 -178 -7 -14 -12 -27 -12 -30 -1 -3 -7 -20
-15 -38 -8 -18 -11 -35 -8 -38 2 -3 135 -5 293 -6 179 0 296 -4 308 -10 77
-41 104 -136 61 -218 -9 -16 -13 -30 -10 -30 11 0 -81 -83 -108 -97 -48 -25
-61 -25 -382 -28 -170 -2 -312 -3 -315 -4 -7 -1 -26 -55 -35 -100 -11 -51 -8
-111 6 -127 6 -8 8 -14 3 -14 -4 0 5 -13 21 -30 15 -16 31 -29 34 -28 3 1 13
-1 21 -5 68 -26 115 -27 846 -23 417 2 773 6 789 9 17 3 55 10 85 16 30 6 64
13 75 15 11 3 52 15 90 27 39 13 72 23 75 24 22 7 190 87 225 108 42 25 100
62 110 69 76 59 138 110 174 143 56 52 201 220 201 233 0 6 4 12 8 14 29 11
172 275 224 413 44 116 87 277 103 390 17 117 25 334 13 341 -5 3 -4 13 2 23
5 10 7 21 4 24 -4 3 -8 23 -10 44 -5 59 -14 126 -19 143 -2 8 -7 29 -10 45 -8
38 -13 59 -15 63 -2 1 -3 5 -4 10 -12 54 -35 120 -74 217 -19 46 -82 162 -120
220 -87 133 -259 304 -397 396 -98 66 -275 163 -275 152 0 -3 -11 2 -25 11
-14 9 -25 14 -25 10 0 -4 -6 -2 -12 4 -13 9 -178 65 -228 76 -83 19 -221 46
-255 51 -22 2 -53 7 -70 9 -109 16 -354 19 -1650 20 -1330 1 -1454 0 -1500
-16z"/>
<path d="M788 3978 c-55 -10 -98 -28 -98 -41 0 -6 -3 -8 -6 -4 -9 9 -62 -56
-80 -98 -21 -50 -16 -150 8 -192 29 -48 69 -84 118 -106 36 -16 65 -20 155
-19 102 0 115 2 160 27 28 16 53 34 58 41 4 7 13 19 20 26 27 27 47 88 47 140
0 30 -3 58 -7 62 -5 4 -8 11 -9 14 -5 39 -62 104 -113 128 -42 21 -187 33
-253 22z"/>
<path d="M1150 3050 c-77 -14 -142 -73 -169 -153 -39 -118 14 -236 129 -285
36 -15 68 -18 160 -17 131 1 165 12 222 69 119 119 65 337 -94 381 -5 2 -9 4
-10 5 -7 6 -207 6 -238 0z"/>
<path d="M2652 2223 c-109 -52 -143 -192 -58 -238 95 -51 227 36 235 157 2 28
-4 43 -26 67 -38 42 -83 46 -151 14z"/>
</g>
</svg>
