<?xml version="1.0" encoding="UTF-8"?>
<svg id="Layer_2" data-name="Layer 2" xmlns="http://www.w3.org/2000/svg" viewBox="0 0 472.97 450.34">
  <defs>
    <style>
      .cls-1 {
        fill: #061774;
        stroke-width: 0px;
      }
    </style>
  </defs>
  <g id="Layer_1-2" data-name="Layer 1">
    <path class="cls-1" d="M98.48,0c.94,1.03,2.23.43,3.34.67,9.25,2.01,17.1,6.78,24.44,12.46,11.25,8.7,20,19.69,28.21,31.18,12.12,16.96,22.38,34.99,31.26,53.83,1.61,3.42,3.03,6.93,3.87,10.6,1.9,8.24-1.37,14.71-7.71,19.67-10.28,8.06-21.66,14.29-33.74,19.25-5.86,2.4-11.66,4.92-17.48,7.41-15.55,6.66-18.52,26.39-13.47,37.02,7.6,16,17.3,30.59,28.61,44.13,34.63,41.49,75.52,75.38,123.02,101.26,12.51,6.81,26.59,4.54,37.77-6.13,4.94-4.71,7.99-10.61,11.03-16.54,5.74-11.21,11.22-22.56,18.42-32.94,1.6-2.3,3.33-4.53,5.17-6.64,6.76-7.72,18.47-9.76,28.04-5.27,11.54,5.41,22.04,12.52,32.58,19.54,20.77,13.83,40.58,28.9,58.48,46.36,2.52,2.46,4.73,5.26,7.03,7.94,5.71,6.67,6.48,14.39,4.91,22.68-1.6,8.47-5.45,15.91-10.33,22.85-15.8,22.43-35.99,39.92-60.34,52.44-17.78,9.14-36.57,10.73-55.98,5.94-22.39-5.53-43.52-14.35-64.09-24.55-55.92-27.72-107.09-62.34-151.99-105.86-30.25-29.32-56.33-62.12-79.32-97.39-15.8-24.23-30.01-49.33-40.7-76.28-3.59-9.03-6.6-18.24-8.47-27.8-2.49-12.74-.35-24.94,4.55-36.74,7.55-18.19,19.65-33.06,34.27-45.96,8.67-7.65,17.49-15.19,27.38-21.28C76.01,6.43,85.21,1.92,95.6.44c.17-.02.31-.29.47-.44.8,0,1.61,0,2.41,0Z"/>
  </g>
</svg>