<?xml version="1.0" encoding="UTF-8"?>
<svg id="Layer_2" data-name="Layer 2" xmlns="http://www.w3.org/2000/svg" viewBox="0 0 652.76 394.89">
  <defs>
    <style>
      .cls-1 {
        fill: #061774;
        stroke-width: 0px;
      }
    </style>
  </defs>
  <g id="Layer_1-2" data-name="Layer 1">
    <g>
      <path class="cls-1" d="M326.44,394.89c-93.24,0-186.47.01-279.71,0-21.95,0-39.93-13.56-45.3-34C.38,356.88,0,352.82,0,348.7.01,247.73.01,146.76,0,45.78c0-6.17,1.2-12.06,3.5-17.8,1.01-2.51,1.7-2.91,3.94-.97,15.6,13.47,31.33,26.8,47.01,40.17,78.98,67.3,157.94,134.61,236.95,201.87,20.72,17.64,49.33,17.57,70.1-.13,94.06-80.11,188.1-160.25,282.14-240.39q4.46-3.8,6.44,1.63c1.82,5,2.68,10.17,2.68,15.5,0,101.09.03,202.18-.03,303.26-.02,26.25-20.06,45.94-46.58,45.95-93.24.03-186.47.01-279.71.01Z"/>
      <path class="cls-1" d="M27.2,3.87C33.21,1.18,39.04.08,45.05.04c9.84-.07,19.68-.02,29.52-.02C251.56.02,428.56.02,605.55,0c6.75,0,13.27.95,19.52,3.62-.2,1.6-1.54,2.11-2.47,2.9-93.21,79.5-186.43,158.98-279.66,238.45-9.71,8.28-23.41,8.29-33.1.03C216.61,165.53,123.39,86.05,30.17,6.57c-.87-.75-1.7-1.55-2.96-2.7Z"/>
    </g>
  </g>
</svg>