<?xml version="1.0" encoding="UTF-8"?>
<svg id="Layer_2" data-name="Layer 2" xmlns="http://www.w3.org/2000/svg" viewBox="0 0 86.49 115.33">
  <defs>
    <style>
      .cls-1 {
        fill: #061774;
        stroke-width: 0px;
      }
    </style>
  </defs>
  <g id="Layer_1-2" data-name="Layer 1">
    <g>
      <path class="cls-1" d="M43.46,0c20.66.2,38.11,14.63,42.28,34.7,1.7,8.19.4,15.85-2.82,23.4-3.64,8.54-8.19,16.57-13.18,24.37-6.11,9.56-12.7,18.77-20.15,27.34-1.42,1.63-2.86,3.24-4.53,4.63-1.39,1.16-2.69,1.18-4.1,0-.65-.54-1.23-1.19-1.76-1.85-10.53-12.91-20.45-26.25-28.78-40.71-3.25-5.64-6.09-11.48-8.29-17.64-3.31-9.24-2.64-18.34,1.08-27.23C8.74,13.8,18.57,5.26,32.38,1.39,35.98.38,39.7-.06,43.46,0ZM43.57,17.15c-14.1-.33-26.31,11.23-26.35,25.49-.05,15.45,10.78,26.32,25.51,26.62,14.14.29,26.34-9.43,26.62-25.89.26-14.88-11.79-26.08-25.79-26.22Z"/>
      <path class="cls-1" d="M43.36,24.71c10.64.03,18.61,8.08,18.6,18.82,0,10.07-8.55,18.49-18.71,18.43-10.24-.06-18.64-8.44-18.6-18.54.04-10.72,8.06-18.73,18.71-18.71Z"/>
    </g>
  </g>
</svg>