<?xml version="1.0" encoding="UTF-8"?>
<svg id="Layer_2" data-name="Layer 2" xmlns="http://www.w3.org/2000/svg" viewBox="0 0 100.01 100.01">
  <defs>
    <style>
      .cls-1 {
        fill: #282b6d;
        stroke-width: 0px;
      }
    </style>
  </defs>
  <g id="Layer_1-2" data-name="Layer 1">
    <g id="Layer_1-2" data-name="Layer 1-2">
      <path class="cls-1" d="M100.01,46.05v8c-.2.84-.4,1.67-.58,2.51-.58,2.71-1.05,5.44-1.76,8.11-1.04,3.95-2.79,7.62-4.91,11.1-1.91,3.14-4.1,6.1-6.71,8.7-1.46,1.45-2.92,2.93-4.57,4.15-2.64,1.94-5.36,3.79-8.18,5.45-3.13,1.84-6.5,3.23-10.07,4-3.33.72-6.68,1.51-10.06,1.78-4.22.34-8.5.14-12.67-.74-4.05-.85-7.99-2.11-11.75-3.88-4.75-2.24-9.05-5.16-12.9-8.72-2.58-2.38-4.82-5.06-6.84-7.94-2.47-3.54-4.43-7.32-5.93-11.37-1.29-3.49-2.23-7.06-2.66-10.76-.09-.8-.25-1.6-.38-2.4-.03-4.37-.24-8.75.78-13.05.66-2.8,1.26-5.63,2.24-8.32.95-2.61,2.28-5.08,3.57-7.55,1.87-3.58,4.36-6.73,7.13-9.63,1.55-1.62,3.31-3.04,4.97-4.55.08-.05.15-.11.23-.16.3-.22.62-.43.91-.67,2.68-2.27,5.79-3.86,8.92-5.38,3.05-1.49,6.25-2.58,9.57-3.28,1.57-.33,3.16-.56,4.74-.85.95-.19,1.88-.4,2.82-.6h7.81c.1.06.19.16.29.18,2.09.34,4.19.64,6.28,1,4.94.85,9.49,2.79,13.88,5.12,3.17,1.69,6.04,3.82,8.76,6.16,2.63,2.26,4.95,4.8,7.04,7.53,2.65,3.44,4.68,7.25,6.33,11.26,1.58,3.85,2.64,7.84,3.12,11.99.11.95.38,1.88.57,2.81h0ZM53.34,43.71c-.02-.13-.03-.26-.05-.4.02-2.21.07-4.42.03-6.62-.02-1.21,1.09-2.9,2.55-2.94,1.54-.04,3.08-.14,4.62-.18,1.28-.03,1.93-.66,1.94-1.95v-4.58c0-1.5-.56-2.08-2.09-2.06-2.13.04-4.26.15-6.39.18s-3.98.8-5.7,2c-.08.05-.15.11-.23.16-2.52,1.97-3.45,4.74-3.87,7.75-.05.38-.19.75-.18,1.12.02,1.41.1,2.83.13,4.24.02,1.09,0,2.18,0,3.32-1.86,0-3.58,0-5.31,0-.92,0-1.47.49-1.47,1.28v7.02c0,.8.42,1.2,1.16,1.23,1.1.05,2.21.03,3.32.03h2.33v.83c0,6.47-.02,12.94-.03,19.41,0,1.23.13,1.35,1.33,1.36h6.15c1.43,0,1.72-.29,1.72-1.75v-19.85h.87c2.02,0,4.04-.02,6.05,0,.7,0,1.24-.24,1.47-.86.18-.49.15-1.06.22-1.59.18-1.45.28-2.92.57-4.35.42-2.06-.12-2.8-2.23-2.81-2.31,0-4.62-.02-6.93-.03l.02.03Z"/>
    </g>
  </g>
</svg>