<?xml version="1.0" encoding="UTF-8"?>
<svg id="Layer_2" data-name="Layer 2" xmlns="http://www.w3.org/2000/svg" viewBox="0 0 100 100.05">
  <defs>
    <style>
      .cls-1 {
        fill: #282b6d;
        stroke-width: 0px;
      }
    </style>
  </defs>
  <g id="Layer_1-2" data-name="Layer 1">
    <g id="Layer_1-2" data-name="Layer 1-2">
      <g>
        <path class="cls-1" d="M48.25,100.01h-2.54c-.06-.06-.11-.17-.18-.18-1.48-.21-2.96-.38-4.43-.6-4.41-.68-8.58-2.13-12.6-4.03-4.52-2.14-8.63-4.88-12.29-8.31-.07-.05-.14-.1-.21-.16-2.01-2.25-4.1-4.43-6-6.77-3.27-4.03-5.57-8.63-7.25-13.52-.7-2.03-1.24-4.13-1.75-6.21-.3-1.22-.41-2.49-.61-3.74-.13-.79-.26-1.59-.39-2.38v-8.21c.07-.16.17-.32.19-.48.21-1.67.26-3.38.62-5.02.95-4.25,2.26-8.39,4.2-12.33,3.31-6.74,7.85-12.49,13.7-17.16,5.11-4.07,10.83-6.98,17.13-8.85C40.38.71,44.99.21,49.66,0c.99-.04,1.99.11,2.98.18,1.69.13,3.41.13,5.07.42,4.37.77,8.6,1.99,12.68,3.79,4.92,2.18,9.32,5.12,13.29,8.7,2.61,2.35,4.91,5,6.96,7.87,3.71,5.17,6.36,10.81,7.79,17,.53,2.3.86,4.66,1.18,7.01.23,1.68.34,3.38.39,5.08.03,1.28-.12,2.57-.19,3.86-.13.13-.26.27-.39.4.06.62.23,1.26.15,1.86-.26,1.79-.62,3.57-.94,5.36-.05.13-.09.27-.14.4v.2c-.07.19-.13.39-.2.58-.4,1.36-.81,2.72-1.21,4.08-.05.07-.1.14-.14.21-1.4,2.98-2.59,6.08-4.26,8.9-1.62,2.72-3.57,5.28-5.67,7.67-1.84,2.1-4.07,3.85-6.13,5.75-.08.06-.16.11-.23.17-.18.14-.37.29-.55.43-.07.05-.14.1-.21.14-.19.15-.38.29-.57.44-.08.05-.15.11-.23.16-2.4,1.44-4.79,2.88-7.19,4.33-.07.05-.14.1-.21.15h0c-.13.05-.26.11-.4.17-.66.27-1.31.58-1.99.81-1.14.39-2.16,1.21-3.47,1.02-.2.18-.41.36-.61.54-.84.21-1.68.42-2.52.63-.2.12-.41.23-.61.35-.35.02-.71,0-1.05.05-2.25.38-4.49.77-6.74,1.17l-.59.16h-5.47v-.04ZM49.96,75.01h10.15c2.58,0,4.96-.55,7.21-1.91,2.15-1.31,3.95-2.94,5.32-5.02,1.77-2.68,2.36-5.72,2.37-8.88.01-4.56,0-9.11,0-13.67,0-1.43.03-2.86-.02-4.29-.02-.55-.3-1.09-.35-1.64-.1-1.11,0-2.26-.22-3.34-.45-2.18-1.65-3.97-3.01-5.74-1.57-2.05-3.64-3.23-5.83-4.34-1.96-.99-4.11-1.09-6.21-1.13-6.51-.1-13.02-.04-19.52-.03-.8,0-1.61.05-2.39.21-2.79.59-5.34,1.67-7.47,3.66-1.27,1.18-2.37,2.47-3.25,3.98-1.5,2.59-1.75,5.41-1.74,8.31.02,6.83,0,13.67.02,20.5,0,.59.11,1.2.27,1.78.95,3.47,2.71,6.43,5.64,8.58,2.49,1.82,5.22,3.02,8.39,2.99,3.55-.03,7.09,0,10.64,0v-.02Z"/>
        <path class="cls-1" d="M32.42,33.39c.41-.45.81-.91,1.22-1.36.05-.05.1-.1.15-.15.91-.41,1.8-.92,2.75-1.19,1.11-.32,2.28-.6,3.43-.61,6.67-.06,13.34-.02,20.01-.03,2.19,0,4.21.7,5.97,1.88,2.08,1.39,3.21,3.56,3.76,5.98.2.86.24,1.77.24,2.65,0,6.67.08,13.34-.05,20.01-.09,4.46-3.5,8.43-7.92,9.16-.63.1-1.26.22-1.9.22-7.03,0-14.06.06-21.09-.06-3.18-.05-5.59-1.71-7.38-4.35-.97-1.43-1.38-3.02-1.67-4.67-.06-.35.09-.73.09-1.1,0-6.21,0-12.43.02-18.64,0-1.18-.02-2.41.27-3.54.32-1.25.98-2.41,1.5-3.6.2-.2.4-.4.59-.6h0ZM49.85,63.05c1.38-.25,2.69-.42,3.97-.74,2.73-.67,4.67-2.54,6.46-4.55,1.45-1.62,1.84-3.74,2.4-5.75.12-.42-.34-1.12-.13-1.37.84-1.05.24-2.12.06-3.07-.58-3.07-2.1-5.63-4.58-7.65-2.14-1.75-4.68-2.48-7.26-2.92-1.36-.23-2.9.13-4.26.55-2.08.66-4.15,1.42-5.68,3.15-1.54,1.75-2.85,3.63-3.38,5.94-.25,1.1-.48,2.23-.5,3.36,0,.8.62,1.66.48,2.4-.27,1.47.63,2.57,1.13,3.63,1.45,3.08,4.08,5.09,7.26,6.24,1.28.46,2.69.53,4.03.78ZM66.03,37.14c0-1.99-1.11-3.06-3-3.18-1.97-.12-3.25,1.54-3.27,3.04-.02,1.52,1.22,3.42,3.37,3.44,1.39,0,2.9-1.68,2.9-3.3Z"/>
        <path class="cls-1" d="M49.8,42.19c3.64-.12,6.83,2.35,7.71,5.61.82,3.01-.06,6.25-2.53,8.26-.15.12-.4.14-.6.21-.18.06-.41.05-.52.17-2.06,2.03-5.6,2.15-7.84.27-.5-.42-1.18-.64-1.62-1.1-3.49-3.68-3.14-8.89.92-11.94,1.4-1.05,2.73-1.47,4.48-1.47h0Z"/>
      </g>
    </g>
  </g>
</svg>