<?xml version="1.0" encoding="UTF-8"?>
<svg id="Layer_2" data-name="Layer 2" xmlns="http://www.w3.org/2000/svg" viewBox="0 0 100 100">
  <defs>
    <style>
      .cls-1 {
        fill: #282b6d;
        stroke-width: 0px;
      }
    </style>
  </defs>
  <g id="Layer_1-2" data-name="Layer 1">
    <g id="Layer_1-2" data-name="Layer 1-2">
      <g>
        <path class="cls-1" d="M0,54.04v-8.41c.07-.13.18-.25.2-.38.21-1.64.27-3.31.62-4.92.87-4.03,2.1-7.95,3.87-11.69,2.35-4.96,5.38-9.48,9.23-13.37,2.22-2.25,4.79-4.16,7.19-6.22.07-.05.14-.1.21-.15,2.84-2.14,6.02-3.68,9.24-5.1,3.41-1.5,6.97-2.56,10.66-3.14,1.66-.26,3.34-.49,5.02-.59,1.75-.1,3.52-.1,5.28,0,2.3.12,4.61.26,6.89.59,4.66.68,9.04,2.22,13.31,4.22,4.38,2.06,8.33,4.73,11.91,7.93,1.89,1.7,3.54,3.67,5.23,5.59,3.14,3.55,5.42,7.66,7.26,11.98,2.57,6.03,3.96,12.34,3.85,18.94v1.21c.01,1.1.02,2.2.03,3.31-.21,1.41-.43,2.83-.62,4.24-.64,4.62-2.08,9.01-4.06,13.21-1.99,4.23-4.55,8.08-7.65,11.6-2.73,3.11-5.8,5.81-9.18,8.19-3.51,2.47-7.27,4.45-11.28,5.91-3.62,1.32-7.34,2.33-11.22,2.63-.74.06-1.46.25-2.2.38h-7.82c-.1-.06-.19-.17-.29-.19-1.51-.21-3.03-.38-4.55-.6-4.27-.62-8.3-2.03-12.19-3.83-3.59-1.66-6.9-3.78-10.02-6.23-3.29-2.57-6.17-5.52-8.69-8.81-2.77-3.61-5.02-7.54-6.69-11.78-1.54-3.91-2.72-7.93-3.14-12.14-.08-.8-.26-1.59-.4-2.39h0ZM76.69,20.81l-.02-.04c.05-.08.09-.15.14-.23-1.53-.02-3.06-.06-4.58-.05-.22,0-.5.21-.66.39-1.47,1.66-2.93,3.33-4.39,5.01-1.31,1.5-2.62,3.01-3.92,4.52-1.86,2.17-3.71,4.35-5.57,6.52-1.46,1.7-2.93,3.4-4.44,5.14-.71-1-1.43-1.97-2.12-2.96-4.12-6-8.25-12-12.34-18.02-.33-.49-.64-.62-1.16-.62-5.18.01-10.36,0-15.55,0-.21,0-.42.05-.7.08.37.65.66,1.25,1.04,1.8,3.2,4.63,6.44,9.23,9.63,13.87,1.97,2.85,3.85,5.76,5.81,8.62,1.8,2.62,3.65,5.2,5.44,7.83.15.22.15.73,0,.94-.53.7-1.16,1.32-1.74,1.99-1.51,1.75-3,3.52-4.51,5.28-1.31,1.52-2.65,3.01-3.94,4.55-1.64,1.96-3.2,3.99-4.86,5.93-1.55,1.81-3.22,3.51-4.8,5.3-.71.8-1.31,1.69-2.04,2.64,1.38,0,2.65-.07,3.91.02.84.06,1.3-.35,1.79-.89,1.43-1.55,2.46-3.44,4.07-4.85,1.34-1.18,2.2-2.76,3.42-4.06,1-1.06,2.1-2.04,2.72-3.5.41-.95,1.64-1.53,2.39-2.37,1.52-1.7,2.98-3.45,4.44-5.21.22-.27.22-.75.46-.97.41-.37.93-.6,1.38-.88.46.63.95,1.25,1.4,1.91,4.59,6.68,9.18,13.36,13.74,20.07.36.53.7.73,1.31.73,5.15-.02,10.3,0,15.45-.01.24,0,.47-.04.81-.07-7.78-11.33-15.49-22.56-23.24-33.84,7.03-8.16,14.04-16.29,21.04-24.41l.16-.16h.03Z"/>
        <path class="cls-1" d="M71.17,75.67c-2.15,0-4.3.03-6.45-.02-.37,0-.86-.27-1.07-.57-1.51-2.15-2.94-4.36-4.44-6.53-1.04-1.5-2.18-2.92-3.21-4.42-1.31-1.9-2.55-3.85-3.85-5.75-.87-1.26-1.81-2.47-2.71-3.72-1.3-1.81-2.59-3.62-3.86-5.44-5.48-7.82-10.95-15.64-16.42-23.46-.32-.46-.62-.93-.97-1.47,2.5,0,4.91-.01,7.31.02.25,0,.57.23.72.45,3.2,4.55,6.38,9.12,9.58,13.68,2.65,3.78,5.31,7.55,7.95,11.34,2.03,2.91,4,5.86,6.04,8.76,3.16,4.5,6.36,8.96,9.52,13.46.75,1.07,1.38,2.23,2.07,3.35-.07.1-.13.21-.2.31h-.01Z"/>
      </g>
    </g>
  </g>
</svg>